<?xml version="1.0" encoding="utf-8"?>
<!-- Generator: Adobe Illustrator 18.1.0, SVG Export Plug-In . SVG Version: 6.00 Build 0)  -->
<svg version="1.1" id="Layer_1" xmlns="http://www.w3.org/2000/svg" xmlns:xlink="http://www.w3.org/1999/xlink" x="0px" y="0px"
	 viewBox="0 0 220.3 139.6" style="enable-background:new 0 0 220.3 139.6;" xml:space="preserve">
<style type="text/css">
	.st0{fill:#FEFEFE;}
</style>
<g>
	<path class="st0" d="M91,63.2c1.5-0.9,2.6-1.6,3.7-2.3c6-3.8,9.8-9.1,11.5-16c1.2-4.6,1.3-9.3,0.8-13.9c-1-10-5.3-18.1-13.8-23.8
		c-8-5.3-17.1-7-26.4-7.1C45.6-0.1,24.1,0.1,2.7,0C0.4,0,0,0.7,0,2.8C0.1,46.4,0.1,90,0,133.6c0,2.3,0.7,2.7,2.8,2.7
		c18.8-0.1,37.5,0,56.3-0.1c6.2,0,12.5-0.4,18.7-1.3c26.6-3.9,39.6-30.4,31.8-53.5C106.5,72.5,100.1,66.7,91,63.2z M183.6,93.4
		c11.4,0,22.8,0,34.3,0c1.3,0,2.4,0.2,2.4-1.8c0-7.2,0.1-14.4-1.5-21.4C215,54,206.3,42,190.3,36.1c-9.2-3.4-18.7-4-28.3-2.7
		c-18.9,2.7-32.1,12.7-38.3,31c-4.5,13.4-4.4,27.2-1.2,40.9c2.4,10.3,7.9,18.6,16.8,24.6c7.6,5.1,15.9,8.5,25,9.3
		c14.7,1.3,28.7-0.5,40.5-10.3c6.5-5.4,11.8-11.8,13.7-20.3c0.3-1.5,0.2-2.1-1.5-2.1c-7.8,0.1-15.7,0.1-23.5,0
		c-1.1,0-1.8,0.3-2.4,1.3c-4.1,7.1-10.5,10-18.5,10.3c-14.3,0.5-24.5-8.3-25.5-22.1c-0.2-2.1,0.3-2.7,2.5-2.7
		C160.9,93.4,172.3,93.4,183.6,93.4z M169.8,23.5c9.1,0,18.2,0,27.2,0c1.6,0,2.2-0.5,2.1-2.1c-0.1-4.3-0.1-8.7,0-13
		c0-1.4-0.3-2.1-1.9-2.1c-18.2,0.1-36.5,0-54.7,0c-1.4,0-1.9,0.4-1.9,1.8c0.1,4.3,0.1,8.7,0,13c-0.1,1.9,0.6,2.4,2.4,2.3
		C151.9,23.4,160.8,23.5,169.8,23.5z"/>
	<path d="M91,63.2c9.1,3.5,15.5,9.3,18.5,18.3c7.8,23.1-5.1,49.6-31.8,53.5c-6.2,0.9-12.4,1.3-18.7,1.3c-18.8,0.1-37.5,0-56.3,0.1
		c-2.1,0-2.8-0.4-2.8-2.7C0.1,90,0.1,46.4,0,2.8C0,0.7,0.4,0,2.7,0C24.1,0.1,45.6-0.1,67,0.1c9.3,0.1,18.4,1.8,26.4,7.1
		c8.5,5.7,12.8,13.9,13.8,23.8c0.5,4.6,0.3,9.3-0.8,13.9c-1.7,6.9-5.5,12.2-11.5,16C93.6,61.6,92.5,62.3,91,63.2z M46.2,112.5
		C46.2,112.4,46.2,112.4,46.2,112.5c5.7-0.1,11.5,0,17.2-0.1c1.2,0,2.5-0.3,3.7-0.4c8.5-1,13.9-5.9,15.3-14.2
		c0.4-2.1,0.3-4.3,0.2-6.5c-0.3-5.7-2.9-9.9-8.2-12.5c-3.4-1.6-7-2.3-10.6-2.3c-11.6-0.1-23.2-0.1-34.7-0.1c-1.5,0-2,0.5-2,2
		c0.1,10.7,0.1,21.5,0,32.2c0,1.6,0.5,1.9,2,1.9C34.9,112.4,40.5,112.5,46.2,112.5z M46.8,53.6c5.2,0,10.3,0,15.5,0
		c0.8,0,1.7-0.1,2.5-0.2C73.9,52.7,79,48.7,80,40.8c0.8-6.9-1-14.3-11.1-15.9c-2.5-0.4-5.1-0.9-7.7-0.9c-10.7-0.1-21.3-0.1-32-0.2
		c-1.5,0-2,0.4-2,2c0.1,8.6,0.1,17.2,0,25.7c0,1.6,0.5,2.2,2.1,2.1C35.1,53.5,41,53.6,46.8,53.6z"/>
	<path d="M183.6,93.4c-11.3,0-22.7,0.1-34-0.1c-2.2,0-2.6,0.6-2.5,2.7c1,13.8,11.2,22.6,25.5,22.1c8-0.3,14.4-3.2,18.5-10.3
		c0.6-1,1.2-1.4,2.4-1.3c7.8,0,15.7,0.1,23.5,0c1.8,0,1.9,0.6,1.5,2.1c-2,8.5-7.2,15-13.7,20.3c-11.8,9.8-25.9,11.6-40.5,10.3
		c-9.1-0.8-17.4-4.2-25-9.3c-8.9-6-14.4-14.3-16.8-24.6c-3.2-13.7-3.3-27.5,1.2-40.9c6.2-18.3,19.4-28.3,38.3-31
		c9.6-1.4,19.2-0.7,28.3,2.7c16,5.9,24.8,17.9,28.4,34.1c1.6,7,1.5,14.2,1.5,21.4c0,2-1.1,1.8-2.4,1.8
		C206.4,93.4,195,93.4,183.6,93.4z M170,75.9c6.8,0,13.7-0.1,20.5,0c2,0,2.3-0.6,2-2.5c-2-11.6-9.5-18.4-21.4-18.8
		c-7.8-0.3-14.7,2-19.2,9c-1.9,2.9-3,6.1-3.9,9.4c-0.6,2.2-0.3,2.9,2.2,2.9C156.8,75.8,163.4,75.9,170,75.9z"/>
	<path d="M169.8,23.5c-8.9,0-17.8-0.1-26.7,0c-1.8,0-2.5-0.4-2.4-2.3c0.1-4.3,0.1-8.7,0-13c0-1.4,0.5-1.8,1.9-1.8
		c18.2,0,36.5,0,54.7,0c1.6,0,1.9,0.6,1.9,2.1c-0.1,4.3-0.1,8.7,0,13c0,1.6-0.5,2.1-2.1,2.1C187.9,23.4,178.8,23.5,169.8,23.5z"/>
</g>
</svg>
