<?xml version="1.0" encoding="utf-8"?>
<!-- Generator: Adobe Illustrator 18.1.0, SVG Export Plug-In . SVG Version: 6.00 Build 0)  -->
<svg version="1.1" id="Layer_1" xmlns="http://www.w3.org/2000/svg" xmlns:xlink="http://www.w3.org/1999/xlink" x="0px" y="0px"
	 viewBox="0 0 960 559" style="enable-background:new 0 0 960 559;" xml:space="preserve">
<style type="text/css">
	.st0{fill:#F2F2F2;}
</style>
<g>
	<rect width="960" height="559"/>
	<g>
		<path class="st0" d="M572.7,422.6c0.3-0.2,0.6-0.4,0.9-0.6c1.5-1.1,2.1-2.3,1.9-4.3c-0.6-4.7-0.1-9.3,1.8-13.8
			c1.8-4.2,4.9-7.2,8.9-9.1c9.5-4.5,19.5-6.1,30-5.8c2,0.1,4,0.3,6,0.4c0.8,0.1,1.2-0.2,1.4-1c0.2-1.7,0.8-3.3,1.6-4.8
			c0.3-0.6,0.4-1.2,0.2-1.8c-1.1-5.9-2-11.9-3.2-17.8c-1.7-8-4.3-15.8-7.1-23.5c-2-5.4-3.7-10.9-5.3-16.3c-0.7-2.3-1.5-4.2-3.5-5.6
			c-0.7-0.5-1.2-1-0.4-1.9c0.6-0.7-0.2-1-0.5-1.3c-2.6-2.2-5.3-4.5-7.9-6.7c-0.8-0.7-1.6-1.4-2.3-2.1c-1.1-1.2-1.1-2,0.5-2.5
			c1.7-0.6,1.3-1.2,0.5-2.2c-4-4.7-7-10-9.6-15.7c-0.8-1.8-1.6-3.6-2.8-5.1c-1.2-1.6-1.7-3.4-0.9-5.4c0.7-1.7,0.4-3.5,0.4-5.3
			c0-3,0.6-5.9,2.3-8.4c1.3-1.9,3.2-3.4,5.6-3.9c0.8-0.2,1.6-0.2,2.5,0.2c-0.8,0.9-1.7,0.8-2.6,0.8c-2.2,0-3.6,1-4.5,3
			c-1.5,3.5-1.2,7.1-0.8,10.7c0.8,6.1,3.6,11.3,7.4,16c2.6,3.2,5.9,5.9,9.2,8.4c7.6,6,15.6,11.5,23,17.8
			c7.4,6.3,15.4,11.8,23.7,16.7c2.1,1.2,4,2.6,6.2,3.7c-1.4-1.7-3.1-3-4.8-4.4c-6-5-12-10.1-18-15.1c-0.2-0.2-0.4-0.3-0.6-0.5
			c-0.5-0.6-1.5-1.2-0.9-2.1c0.6-0.9,1.7-0.5,2.5-0.1c1.7,0.7,3.4,1.7,4.4,3.1c2.5,3.7,6.4,5.6,9.6,8.4c6.3,5.5,12.7,10.8,19.1,16.2
			c2.1,1.8,4.1,3.7,6.2,5.3c2.7,2.1,5.6,3.9,8.8,5.4c-2.5-2.4-5-4.7-7.5-7.1c0-0.1,0.1-0.1,0.1-0.2c1,0.7,2.1,1.4,3,2.1
			c5.3,4.2,11,8,16.6,12c1,0.7,2.2,1.2,3.2,1.8c0.9,0.5,1.3,0.4,1.2-0.8c-0.4-3.7,0.3-7.2,1.6-10.6c0.5-1.3,1.3-2.5,2.1-3.6
			c0.8-1.1,1-2-0.1-2.9c-0.3-0.3-0.5-0.6-0.5-1.1c1.6,0.9,4,0.7,5.7-0.5c0.4-0.3,0.5-0.8,0.6-1.2c1.4-6.8,5-12.3,10.4-16.6
			c1.9-1.5,4.2-2.2,6.7-2.6c0.8-0.1,1.5-0.6,2.7-0.5c-1.7,1.2-3.1,2.2-4.6,3.2c-5.3,3.9-9.4,8.8-11.4,15.2c-0.4,1.4,0,1.6,1.3,1.5
			c3-0.2,5.8,0.8,8.6,1.7c0.3,0.1,0.5,0.4,1.1,0.8c-3.1-0.9-5.9-1.5-8.7-1.6c-2.4,0-2.5-0.4-2.8,2.4c-0.2,1.8-0.3,3.6,0.1,5.4
			c0.3,1.3,1.4,1.3,2.2,1.7c0.5,0.2,0.9-0.5,0.8-1c-0.2-0.9-0.1-1.9-0.7-2.6c-0.5-0.6-0.5-1.3-0.5-2c0.2,0,0.4,0,0.4,0
			c0.8,0.8,1.1,1.9,2.3,2.4c1.4,0.5,1.8-1.1,2.8-1.3c0.9-0.2,1.8-0.7,2.7-1.1c0.2-0.1,0.4-0.1,0.6-0.1c-1.5,1-3,1.9-4.2,3.3
			c-0.4,0.4-0.8,0.8-0.3,1.5c0.4,0.6,0.8,0.8,1.5,0.7c2.9-0.2,5.7-0.7,8.6-0.3c1,0.1,1.1-0.6,1.4-1.2c2.7-6.3,7.3-11.1,12.7-15.1
			c2.8-2,5.9-2.8,9.3-2.1c0.2,0,0.4,0,0.6,0c0.3,0,0.6-0.1,1-0.2c-2.1-3-4.4-5.6-6.9-8.1c-0.8-0.8-1.7-1.7-2.6-2.4
			c-0.6-0.5-0.8-1.2-0.5-1.8c0.4-0.7,1.1-0.3,1.6-0.1c1.2,0.5,2.1,1.3,3,2.2c8.3,8.4,15.2,17.8,19.6,28.9c0,0.1,0.1,0.2,0.1,0.3
			c0.1,3,2,3.8,4.5,3.8c0.6,0,1.2,0.2,1.8,0.3c1.1,0.3,2.3,0.8,3.1-0.7c0.5,0.7-0.4,1.6,0.7,1.8c0.6,0.1,1.4,0.7,1.9,0.4
			c0.6-0.4,0.3-1.2,0.2-1.9c-0.3-4.1-1.1-8.1-2.7-11.9c-0.8-2-1.8-3.9-1.4-6.1c1,0.2,1.1,0.3,1.9,1.7c2.8,4.8,4.2,10,5.1,15.4
			c0,0.2,0.1,0.3,0.1,0.5c-0.5,3.1,1.2,4.7,4,5.5c1.8,0.6,3.4,1.7,4.7,3.1c0.4,0.4,0.9,0.6,1.4,0.4c0.5-0.2,0.7-0.5,0.7-1.1
			c0.4-2.6,0.6-5.1,0.4-7.7c-0.2-3.4-0.8-6.7-1.3-10.1c-0.7-4.8-2.8-8.9-4.7-13.2c-0.5-1.1-0.3-2.4-1-3.9c1.5,0.9,2.2,2,2.8,3
			c3,5.2,5.7,10.6,6.7,16.6c0.7,4.6,1.1,9.1,0.6,13.7c-0.2,1.3,0.1,1.7,1.5,1.7c2.4,0,3.7,1.6,4.7,3.7c0.4,0.8,0.2,2.4,1.6,2.3
			c1.2-0.1,0.8-1.6,1.1-2.5c2.9-8.8,3.4-17.8,1.5-26.8c-0.9-4.1-2.7-7.9-5-11.4c-0.7-1-1-2.1-1.7-3.2c0.8-0.1,1,0.5,1.3,0.7
			c5.3,4.5,8,10.4,9.2,17.1c1.3,7.5,0.5,14.9-1.1,22.3c-0.1,0.6-0.2,1.2-0.4,1.8c0.7,0,0.9-0.5,1.2-0.9c2.8-3.1,4.6-6.8,6.7-10.4
			c1.2-2.2,2.6-4.2,4.9-5.4c1.2-0.6,1.6-2.1,2.4-3.2c4.9-7.1,8.6-14.7,12.1-22.6c0.7-1.6,1.4-3.1,3.7-2.7c0.8,0.2,1.1-0.8,1.4-1.5
			c1-2.6,1.9-5.1,2.8-7.7c0.5-1.4,1-2.8,2.8-2.8c0.6,0,0.8-0.4,0.7-1c0-1.1,0.2-2.2-0.1-3.2c-0.2-0.7-0.1-1.4,0.4-1.9
			c0.3-0.3,0.4-1,0.9-0.9c0.5,0.1,0.5,0.7,0.6,1.1c0.2,0.7,0.4,0.8,1,0.2c1.1-1.2,2.1-2.4,2.5-4c0.5-1.9,1.5-3.6,2.2-5.4
			c0.5-1.4,1.8-0.9,2.6-0.3c0.7,0.4,0.9,0.3,1.3-0.2c1.9-2.3,4.1-4.3,5.8-6.8c1.2-1.8,3-2,4.6-1c0.6,0.4,0.8,0.7,0.2,1.4
			c-2.2,2.6-4.2,5.4-5.7,8.5c-0.4,0.8-0.6,1.4,0.3,2.1c0.8,0.6,1.1,1.5-0.1,2.2c-1.1,0.7-1,1.5,0.2,2c1.4,0.6,1.5,1.3,0.8,2.6
			c-0.9,1.6-1.6,3.2-2.2,5c-0.7,2.1,0,4.3,0,6.4c0,8.4,2.3,16.5,4.1,24.7c2.1,9.2,3,18.5,3.7,27.9c0.5,6.5,0.6,13.1,0.9,19.6
			c0.1,1.6,0,3.3-0.1,4.9c-0.1,1.4,0.2,2.4,1.7,3.1c3.6,1.5,6.1,4.3,8.7,7.1c3.5,3.6,6.1,7.8,9.1,11.9c2.9,3.9,5.2,8.1,7.7,12.2
			c1.4,2.3,2.4,4.8,3.4,7.3c0.3,0.8,0.7,1.6,1.1,2.4c1.2,2.8,1.8,5.7,3,8.4c1.3,3,1.2,6.4,2.2,9.6c1.3,4,1.1,8.2,1.9,12.3
			c0.3,1.6,1.5,2.9,2.1,4.5c0.2,0.4,1.3,0.8-0.2,0.9c-0.4,0,0.1,0.7,0.4,0.9c1.7,1.2,2.3,2.8,2.3,4.8c0,0.4-0.3,1.6,1,1.3
			c0.5-0.1,0.4,0.6,0.3,1c-0.2,1-0.6,1.9,1,2.1c0.5,0,0.6,0.9,0.5,1.5c-0.1,0.2-0.3,0.7-0.3,0.7c0.9,0.6,1.3,1.3,1.6,2.5
			c0.2,0.9,1.3,1.5,0.8,2.7c-0.3,0.7,0.8,1.3,0,2.2c-2-5.4-4.4-10.5-7.3-15.4c-0.2,2.2,0,4.3,0.6,6.4c1,3.4,0.7,7,1,10.5
			c0.5,5.9,2.3,11.3,4.5,16.7c1.1,2.8,1.7,5.8,2.9,8.6c0.8,1.9,1.1,4,1.9,6c2.4,5.7,5.7,11.1,7.2,17.1c0.7,2.8,1.6,5.8,0.4,8.8
			c-0.2,0.5-0.3,1-0.9,1.2c-0.6-0.7,0.2-1.5-0.1-2.2c-0.6-2-1.2-4-1.6-6c-0.3-1.8-1.7-3.3-2-5.1c-0.1-0.6-0.6-0.7-1-0.2
			c-0.2,0.2-0.5,0.3-0.6,0c-0.1-0.2-0.1-0.4-0.1-0.6c0.4-1.7-0.2-3-1-4.6c-0.9-1.9-1.5-3.9-2.6-5.7c-1.2-1.9-2.4-3.8-3.8-5.6
			c-0.9-1.2-1.4-2.6-2.4-3.7c-2-2.3-4.1-4.7-6.1-7.1c-0.1-0.1-0.3-0.2-0.6-0.4c-0.4,2.3-1,4.5-1.1,6.8c-0.1,1.5,1.1,2.7,1.8,4
			c4.4,7.7,7.7,15.9,10.1,24.5c0.6,2.2,1.4,4.4,1.5,6.7c0,0.3,0.6,0.8-0.3,0.7c-0.4,0-0.3,0.8,0,0.7c1.3-0.1,1,1,1.1,1.6
			c0.3,1.2,0.5,2.4,0.8,3.6c-0.7,0-1.4,0-2.2,0c-0.4-3.2-1.3-6.3-2.4-9.3c-0.3-0.9-0.8-1.6-0.8-2.7c0-0.5-0.2-1.1-0.5-1.6
			c-0.8-1.2-1.2-2.5-1.7-3.8c-1.7-4.4-3.3-8.9-5.5-13c-1.2-2.2-2.7-4.3-3.8-6.5c-0.9-1.7-2.3-3.1-3.1-5c-0.2-0.4-0.4-0.8-0.9-0.6
			c-0.5,0.3-0.1,0.6,0,0.9c0.9,2,1.7,4.1,2.9,5.8c1.3,1.9,2.1,4,2.7,6c0.7,2.2,2.1,4.2,2.7,6.5c1.1,4.2,2.9,8.2,4,12.5
			c0.7,2.7,0.8,5.7,2.3,8.3c0.2,0.4,0.8,1.5,0.2,2.3c-0.5,0-1,0-1.5,0c-0.5-2-0.5-4.1-1.5-6.1c-1.4-2.6-1.9-5.7-2.9-8.6
			c-2.2-6.5-4.9-12.8-7.6-19c-0.9-2-1.9-3.9-3.3-5.7c0.2,2.4,0.6,4.7,1,7.1c0.1,0.5,0.4,1,0,1.3c-0.5,0.5-0.6,0.5-0.2,1.1
			c0.1,0.2,0.3,0.3,0.4,0.4c0.7,1.4,0.6,2.8,0.8,4.6c-0.9-0.8-0.4-1.8-1.3-2.3c-0.2,1.7,0.3,3.2,0.6,4.6c0,0.1,0.2,0.4,0.2,0.3
			c1.4-0.2,0.3,1,0.7,1.3c-1.2,1-0.4,2.2-0.3,3.3c0.2,1.8,0.5,3.7,0.6,5.5c0.1,1.3,0.4,2.6,0.2,4.1c-0.6-0.4,0.1-1.3-0.9-1.4
			c0.2,0.7,0.2,1.4,0.1,2.1c-0.1,0.3,0.1,1,0.4,0.9c1.2-0.5,0.6,0.4,0.7,0.7c0.2,1.9,0.4,3.8,0.6,5.7c-2,0-3.9,0-5.9,0
			c-0.3-3-1.2-5.9-2.8-8.4c-3.5-5.7-7.8-10.8-11.8-16c-0.4-0.5-0.8-0.9-1.5-1.1c0,0.5-0.2,0.9,0,1.4c0.5,1-0.2,2.3,0.9,3.2
			c-1.1,2.3,1.3,4,1,6.3c-0.1,1.1,0.6,2.5,0.9,3.7c0.3,1.2-0.1,2.7,0.7,3.8c0,0.1,0,0.2,0,0.3c-0.4,3.2,2,6.1,5.7,6.3
			c0.9,0.1,1.9-0.1,2.7,0.6c-76.5,0-153.1,0-229.6,0c0.3-0.4,0.9,0,1.2-0.5c-0.1-0.1-0.1-0.2-0.2-0.2c-3-0.8-6-0.4-9-0.5
			c-0.6,0-0.9,0.6-0.9,1.2c-1.2,0-2.5,0-3.7,0c0.5-0.9,0.5-1.4-0.8-1.3c-1.7,0.1-3.5,0.1-5.3,0c-1.3-0.1-2.2,0.4-3,1.3
			c-1.7,0-3.3,0-5,0c0.2-0.3,0.8-0.5,0.6-0.9c-0.2-0.5-0.7-0.2-1.1-0.2c-1,0-1.9,0.1-2.9,0.1c-0.8,0-1.4,0.2-1.6,1.1
			c-2.5,0-5,0-7.4,0c-0.1-0.9-0.8-0.7-1.3-0.7c-2.2,0-4.4,0.1-6.6,0.2c-0.5,0-1,0-1.4,0.5c-10.8,0-21.7,0-32.5,0
			c-0.1-0.2-0.2-0.4-0.2-0.6c-0.9-2.2-0.7-2.8,1.6-3.2c2.2-0.4,4.5-0.7,6.7-1.1c0.4-0.1,1.1,0,1.2-0.5c0.1-0.6-0.5-0.7-0.9-0.9
			c-1.1-0.6-1.1-1.3-0.1-2c0.6-0.4,0.9-0.9,0.9-1.7c-0.2-3.3-0.1-6.6,0.3-9.9c0.2-1.5-0.4-1.7-1.7-1.7c-3.3,0.1-6.7,0.1-10-0.2
			c-2.4-0.3-4.8-0.6-7.2-0.9c0-1.2,0-2.5,0-3.7c0.5,0.1,1,0.1,1.5,0.2c5.3,1.2,10.7,1.8,16.1,1.7c1.3,0,1.8-0.4,1.8-1.7
			c0-0.9,0-1.8-0.3-2.7c-0.3-1-0.7-2.1-0.9-3.1c-1.5-8.2-2.7-16.4-3.7-24.6c0-0.4,0.2-1-0.5-1.2c-1.2,3.5-1.3,7.1-1.4,10.8
			c-1.5-1-0.5-2.2-0.6-3.3c-0.4-3.4,0.2-6.7,1.2-9.9c0.8-2.6,1.4-5.2,1.4-7.9c0-4.3,0.7-8.5,1.7-12.7c1.2-4.8,3-9.3,4.7-13.9
			c0.4-1,0.8-1.8-0.9-1.6c-0.4,0.1-0.7-0.1-0.9-0.5c-0.2-0.4,0.1-0.7,0.4-0.9c0.4-0.3,0.8-0.8,1.2-0.9c1.9-0.3,2.8-1.7,3.5-3.2
			c3.7-7.2,7.4-14.3,12.1-20.8c1.2-1.7,2.4-3.4,3.6-5.2c-0.6-0.3-1,0-1.4,0.3c-2.3,1.7-4.5,3.5-6.6,5.4c-4.1,3.8-7.6,8.1-10.9,12.6
			c-4.2,5.8-8.4,11.5-11.3,18.1c-5.2,12.1-6.1,24.4-1.7,36.9c0.4,1.2,1.2,2.3,1.3,3.8c-0.8-0.4-1.1-0.9-1.4-1.4
			c-1.1-2-1.9-4.1-2.7-6.2c-2.2-5.5-2.7-11.3-2.5-17.2c0.3-8.3,3.4-15.8,7.4-22.9c2.5-4.4,5.4-8.6,8.3-12.7c0.6-0.8,0.8-1.5-0.3-2
			c-1.2-0.6-2.2-1.6-3.2-2.4c-0.9-0.7-1.5-0.7-2.2,0.1c-0.4,0.4-0.8,0.8-1.2,1.2c-4.1,4.4-8.1,8.9-12,13.6c0-1.4,0-2.9,0-4.3
			c0.9-1,1.8-2,2.7-3c2.9-3.3,5.9-6.5,8.8-9.8c0.3-0.4,0.9-0.7,0.3-1.3c-0.5-0.4-1-0.1-1.4,0.2c-0.7,0.6-1.4,1.2-2.1,1.8
			c-3.2,2.8-5.8,6.1-8.2,9.6c0-2,0-3.9,0-5.9c2.6-3.1,5.4-6,8.5-8.5c0.7-0.5,0.6-1,0.2-1.7c-1-1.7-1.8-3.4-2.7-5
			c-0.7-1.4-1.1-1.5-2.1-0.3c-1.4,1.6-2.6,3.2-3.9,4.8c0-1.7,0-3.3,0-5c1.4-1.2,2.3-2.8,3.6-4.1c0.3-0.3,0.4-0.7,0.1-1.1
			c-0.3-0.4-0.8-0.3-1.1,0c-0.9,0.6-1.8,1.2-2.6,1.8C572.7,425.3,572.7,424,572.7,422.6z M763.5,356.9c1.2,0,0.7-1,0.7-1.5
			c-0.1-0.8-0.8-0.6-1.2-0.4c-0.5,0.2-1.6-0.3-1.1,0.9c-1.9-0.7-7.9,0.6-9.1,2.2c0.3,0,0.6-0.1,0.8-0.1c3.3-0.4,6.5-1.1,9.8,0
			c0.2,0.1,0.5,0.2,0.7-0.1C764.2,357.4,763.8,357.2,763.5,356.9z M807.9,397.9c-1,0.2-1.3,1.1-1.7,1.8c-1.6,2.3-3.1,4.6-4.7,6.9
			c-0.3,0.5-0.7,1-1.4,0.8c-0.6-0.2-1-0.7-1.1-1.4c0-0.2,0.2-0.5-0.2-0.7c-1.8,1.6-3.5,3.5-5.8,4.5c1.7-0.2,3.3-0.9,5-0.9
			c2.4,0,4.2-0.7,5.4-3.1C804.7,403,806.6,400.6,807.9,397.9c1.7-1.8,2.8-4,4-6.1c-0.6,0.5-1.2,1-1.5,1.7
			C809.7,395,808.1,396,807.9,397.9z M720.9,412.4c-0.5,0.8-1.5,1.2-1.5,2.6c0.8-0.6,1.4-1,2-1.5c0.3-0.3,1.1-0.5,0.8-1.1
			C721.9,411.9,721.3,412.4,720.9,412.4c0.1-0.2,0.2-0.5-0.2-0.7c-0.8-0.4-1.7-0.7-2.7-0.7c-3.2,0.2-6.4,0.4-9.6,0.5
			c-0.8,0-1.1,0.3-0.9,1.2c0.5,1.6,0.9,3.3,0.9,5c0,0.8,0.3,1,1.1,0.5c1.7-1,3.4-2,5.1-2.9C716.6,414.1,718.4,412.6,720.9,412.4z
			 M755.8,353.4c-2.8-0.7-5.6-0.9-8.4-0.8c-2.3,0.1-2.3,0.1-2.1,2.4c0.3,2.9,0.6,3,3.1,1.5c0.7-0.4,0.7-1,0.6-1.6
			c-0.1-0.9,0.5-1.4,1.2-1.5c0.7-0.2,0.7,0.6,0.9,1c0.3,0.8,0.7,1,1.5,0.7c0.9-0.3,1.9-0.6,2.8-0.8c0.4-0.1,1-0.2,0.9-0.8
			c1.9,0.7,3.8-0.3,5.6-0.4c2.2-0.1,2.2-0.2,1.6-2.3c-2-6.9-6.2-12.7-10.2-18.4c-0.3-0.4-0.7-0.6-1.2-0.4c-1.8,0.6-3.7,1.3-5.6,1.9
			c-0.9,0.3-1.2,0.9-0.9,1.7c0.4,1.1,0.1,2.1,0,3.2c-0.4,3.6-0.9,7.3-0.7,10.9c0.1,2.2,0.2,2.3,2.4,2.4
			C750.2,352.1,753.1,352.1,755.8,353.4z M628.5,432.8c0.1-1,0.1-2.1,0.2-3.1c0.1-1.6,0.3-3.2,0.4-4.8c0-0.5,0.1-1.1-0.6-1.2
			c-0.7-0.1-0.5,0.6-0.7,0.9c-0.5,1.1-0.6,2.3-0.8,3.6c-0.4,2.8-0.7,5.6-1.2,8.4c-0.2,0.9,0.1,1.4,1,1.6c1,0.2,0.6-0.7,0.8-1.1
			C628,435.7,627.7,434.1,628.5,432.8c-0.1,1.5-0.2,3.1-0.5,4.7c-0.2,1.1,0.2,1.6,1.1,2.1c2.4,1.3,4.9,2.5,7.4,3.6
			c1.1,0.5,1.4,0.2,1.1-1c-0.5-1.8-0.4-3.6,0.6-5.5c0.2,0.7,0.3,1,0.4,1.4c0.4,2,1.3,3.7,2.6,5.2c0.8,1,1.6,1.4,2.9,0.6
			c1.3-0.9,2.9-1.4,4.4-1.9c0.5-0.2,1.1-0.3,1.7-0.3c0.4,0,0.7,0.1,0.9,0.5c0.1,0.3,0,0.6-0.3,0.8c-1.6,1.3-0.4,2.6,0.2,3.7
			c0.8,1.3,1.9,0.4,2.7,0c5-2.3,7-6.6,7.8-11.7c0.3-2.2,0.2-4.4,0.3-6.6c0.1-0.7-0.4-0.8-0.8-0.9c-1.6-0.4-3-1.1-4.5-2
			c1.8-0.7,3.7-0.7,5.4-0.8c0.9-0.1,1.5-0.2,1.1-1.4c-0.3-0.7-0.5-1.5,0.3-1.9c0.7-0.3,1.5-0.3,2.2,0.4c0.6,0.6,1.2,1.1,1.8,1.7
			c0.5,0.4,1,0.4,1.4,0.1c0.5-0.3,0-0.7-0.2-1c-0.2-0.3-0.2-0.7-0.4-1c-0.1-0.2-0.4-0.4-0.3-0.6c0.2-0.3,0.5-0.2,0.8-0.1
			c1.2,0.4,2.5,0.7,3.7,1.1c0.9,0.3,1.9,1,2.8-0.1c1.6-1.8,3.1-3.6,3.9-6c-0.1,0-0.2-0.1-0.3-0.1c-0.4,0.1-0.7,0.1-1.1,0.2
			c-8,2.1-16.2,3.2-24.5,3c-3-0.1-6.1-0.2-9-1.2c-2.3-0.8-4.5-1.8-6.6-3c-1.1-0.6-1.5-0.3-1.5,0.9c0,1,0.1,2.1,0,3.1
			c-0.3,2,0.6,4.1-0.6,6c-0.1,0.1,0.1,0.4,0.1,0.6c0.1,1.9,0.2,3.8,0.3,5.7c0.1,0.9-0.3,1.3-1.1,1.4c-0.9,0.1-1-0.6-1.1-1.2
			c-0.1-0.4,0-0.7,0-1.1c0.1-1.7,0.3-3.5,0.4-5.2c0-0.5,0.2-1.2-0.4-1.6c-1.4-1-3.6-0.1-3.9,1.6
			C629.2,427.5,629.3,430.2,628.5,432.8z M637.2,389.6c0,0.5,0.1,0.9,0,1.4c0,0.7-0.1,1.9,0.1,2.1c1.6,1.7,1.5,3.6,1,5.6
			c-0.2,0.7-0.5,1.5-1.5,1.1c-1-0.4-1,0.3-1,0.8c0.5,2.9,0.2,5.9,0.4,8.8c0,0.7,0.3,1.2,0.8,1.6c3.5,2.1,7,4.2,11.2,4.6
			c5.2,0.6,10.4,0.6,15.6-0.1c6.2-0.7,12.3-1.7,18.1-3.8c3.1-1.1,5.8-3.2,9.2-3.7c0.7-0.1,0.6-0.5,0.2-1c-1.3-1.7-2.1-3.5-2.7-5.6
			c0.5-0.1,0.8,0.2,1.1,0.3c2.3,1.3,4.3,2.8,6.2,4.7c0.6,0.6,1.1,0.7,1.9,0.7c2.4-0.2,4.8-0.4,7.2-0.2c7.2,0.4,14.3,1.2,21.4,3
			c0.4,0.1,0.9,0.3,1.2,0c0.4-0.4,0-0.9-0.1-1.3c-1-2.7-2-5.4-3.1-8.1c-0.2-0.6-0.6-0.9-1-1.3c-2.4-1.9-4.5-4-7.2-5.6
			c-3.4-2-5.9-5.2-9.4-7.2c-1.2-0.7-2.3-1.5-3.4-2.2c-3.6-2.5-7.4-4.7-11.2-6.9c-0.3-0.2-0.6-0.5-1-0.3c-0.4,0.3,0,0.7,0,1
			c0.1,1.7,0.4,3.5,0.1,5.2c-1.2,6.4-4.4,11.4-10.2,14.5c-4.7,2.5-9.8,2.7-14.9,2.5c-4.3-0.2-7.5-2.2-9.8-5.7
			c-4.9-7.2-0.8-15.5,7.8-16.2c0.4,0,0.7-0.1,1.1-0.1c3.3-0.3,6,1.4,8.8,2.6c0.5,0.2,0.6,0.7-0.1,0.8c-1,0.2-2,0.7-3.1,0.5
			c-1.8-0.3-3.6-0.5-5.4-0.9c-3.9-0.8-7.8,2.3-8.2,6.3c-0.3,4.2,3.8,9.3,8,9.8c3.5,0.4,7,0.3,10.4-0.7c6.4-1.8,10.8-5.9,12.3-12.5
			c0.9-4.3,0.1-8.9-4.5-11.3c-1.8-0.9-3.6-1.9-5.5-2.5c-8.7-2.7-17.5-2.6-26.3-1.2c-5.1,0.8-9.8,2.3-14.2,5c-0.9,0.5-1.1,1.1-1,2.2
			c0.4,2.7,0.4,5.4,0.9,8C637.9,386.2,636.8,387.9,637.2,389.6c-1.2-0.8-1.1-2.2-1.2-3.4c-0.2-1.2-0.4-2.3-0.9-3.4
			c-0.2,3,0,5.9,0.5,8.8c0.1,0.4,0.2,0.7,0.7,0.7c0.5,0,0.4-0.5,0.4-0.8C636.7,390.8,636.3,390,637.2,389.6z M816.9,395.5
			c0.1,0.6-0.1,0.8-0.2,1c-2.6,3.4-5.2,6.7-7.8,10.1c-0.5,0.6-1.5,1.1-1.2,1.8c0.3,0.7,1.4,0.4,2.1,0.4c4.4,0.1,8.7,1.9,13.2,0.8
			c0.3-0.1,0.8-0.1,0.7,0.3c-0.1,1.2,0.8,1,1.4,1.2c1.2,0.3,2.5,0.6,3.7,1c6,1.5,11.6,3.9,17.3,6.2c3.5,1.5,7.1,2.4,11,1.6
			c1.1-0.2,1.6-0.6,1.9-1.7c1.9-7,2.4-14.2,2.9-21.4c0-0.7-0.2-1.3-0.7-1.8c-5-5.7-14.3-5.6-19.6-2c-1.8,1.2-2.1,2.6-1.4,4.6
			c0.8,2.4,2.7,3.9,4.7,5.2c3.8,2.4,7.1,1.7,9.9-1.8c0.7-0.9,0.8-1.8,0.1-2.6c-1.9-2.1-3-4.6-4.2-7.1c1.2-0.2,1.7,0.9,2.4,1.4
			c1.8,1.4,3.7,2.8,4.9,4.9c0.5,1,1.2,2,0.5,3.1c-0.8,1.4-1.7,2.8-2.8,3.9c-2.7,2.5-5.7,4-9.4,2.6c-3-1.1-5.5-3.1-7.3-5.8
			c-3.2-4.8-2-9.7,3.1-12c6.2-2.8,12.4-3.1,18.5,0.5c1.6,0.9,1.6,1,1.7-0.8c0.3-7.1-0.3-14.1-1-21.1c-1-10.4-2.9-20.6-5.2-30.8
			c-0.1-0.6,0-1.3-0.8-1.8c-1,2.2-1.7,4.4-2.7,6.5c-3,6.8-7.1,13-11.2,19.1c-5.2,7.6-11.2,14.6-17.3,21.6
			c-6.6,7.5-12.3,15.7-17.8,24.1c-0.3,0.4-0.7,0.9-0.4,1.7C809.8,404.4,813.3,400.1,816.9,395.5z M784.9,548.8
			c-1-0.9-0.2-1.9-0.4-2.8c-0.6-3.7-1.2-7.5-1.6-11.2c-0.6-5.1-1.1-10.3-2-15.3c-0.4-2.2,0.7-3.8,2.8-4.6c0.9-0.3,1.3-0.3,1.3,0.8
			c0,1.3,0.1,2.6,0.3,3.8c1.4,10.3,2.4,20.6,3.3,30.9c0.2,2.1,0.3,2.3,2.4,2.3c3.7,0,7.4,0.1,11.1,0.3c4.5,0.2,8.9-0.1,13.4,0.4
			c1,0.1,1-0.4,0.5-1c-0.6-0.9-1.3-1.7-2-2.6c-3.6-4.7-8.3-8.3-12.3-12.7c-2.8-3.1-5.9-6.1-7.6-10.1c-0.8-1.8-0.8-3.7-0.1-5.6
			c0.2-0.6,0.8-0.8,1.3-0.9c0.3-0.1,0.4,0.3,0.4,0.5c0.6,2.4,2.1,4.2,3.7,6c4,4.6,8.3,8.9,12.7,13c3.5,3.3,6.6,7.1,9,11.4
			c0.5,0.9,0.8,0.9,1.6,0.2c2.3-2.1,4.7-4.2,6.9-6.3c1.2-1.1,2.4-2.2,2.5-4.1c0.1-0.8,0.5-1.6,1.1-2.2c1.3-1.2,1.2-2.4,0.4-3.7
			c-0.4-0.8-1-1.4-1.6-2.1c-2.9-3.6-7-5.6-11-7.7c-6.1-3.3-12.4-6.4-18.7-9.5c-5.5-2.7-10-6.4-13.5-11.5c-0.2-0.3-0.2-0.7-0.8-0.6
			c0.2,4.6,1.1,9.2,1.5,13.8c0.7,6.9,2,13.8,1.3,20.8c0.6-1.4-1-1.6-1.2-2.6c-0.6-2.6-0.5-5.2-1.5-7.7c-0.7-1.9-0.8-4.1-1.6-6.1
			c-0.7-1.8-0.8-3.8-1-5.7c-0.3-2.3-0.4-4.7-1.3-6.9c-0.2-0.4-0.3-0.9,0.1-1.2c0.9-0.6,0.9-1.7,1.5-2.4c0.6-0.7,0.4-1.6-0.3-2.1
			c-0.7-0.4-1.7-0.3-2.2,0.5c-0.5,0.7-1.1,0.7-1.8,0.8c-1.7,0.1-3.6-0.7-5.1,0.9c-0.1,0.1-0.3,0.1-0.4,0.1c-1.7-0.5-2.8,0-4.3,1.1
			c-3.1,2.1-5.2,4.6-6.2,8.1c-0.6,1.9-1.1,3.9-1.9,5.7c-0.6,1.3-0.7,2.6-0.7,3.9c0,0.1,0.1,0.3,0.1,0.4c0.4-0.2,0.3-0.9,1-1
			c0.1,4.4-0.4,8.6-0.7,12.9c-0.1,1.3-0.1,2.6-0.7,3.8c-1.5,3.1-1.5,6.6-2.4,9.9c-0.2,0.9,0.2,1.3,1.1,1.2c1.3,0,2.6-0.2,3.9-0.1
			c5.1,0.6,10.2,0.3,15.3,0.4c0.7,0,1.7-1.3,1.3-1.8c-1-1.3-0.7-2.8-1-4.3c-0.2-1,0.6-1.5,1.5-1.8c1.1-0.3,1.3,0.6,1.4,1.3
			c0.1,0.8,0.2,1.6,0.3,2.4c0.1,1.1,0.3,2.2,0.5,3.3c0.1,0,0.2,0,0.3,0c0.1-0.5,0.1-1,0.2-1.6c0.4,0.6,0,1.4,0.8,2
			c-0.1-1.5-0.2-2.8-0.2-4.1c0.1,0,0.1,0,0.2,0c0.1,0.5,0.1,1,0.2,1.4c0.7-2.5-1.1-4.6-1.1-6.9C784.3,544.5,785.3,546.5,784.9,548.8
			z M735.6,493.7c-0.8,1-0.7,2-0.5,2.9c0.3,1.6,0.6,3.1,0.6,4.8c0,1.1-0.6,1.8-1.5,1.8c-1.1,0-1.1,0.5-1.1,1.3
			c0.1,2,0.2,3.9-0.2,5.9c-0.4,2.2-2,3.1-4,2.3c-0.8-0.3-0.8,0.2-0.9,0.6c-0.4,1.4-0.8,2.9-1.1,4.3c-2.5,10.1-3.9,20.3-5.7,30.5
			c-0.2,1.4,0.3,1.7,1.5,1.8c0.9,0,1.9-0.3,2.6,0.2c1.4,1.3,3.3,1.1,4.7,1.1c4,0,8,0,11.9,0.2c4.7,0.2,9.3,0.2,14,0.4
			c0.8,0,1.2-0.3,1.5-1c0.6-1.5,0.6-3,0.9-4.5c1.1-6.2,1.8-12.4,1.6-18.8c-0.1-2.2,0.1-4.4-1.5-6.3c-1-1.2-1.3-2.8-1.5-4.3
			c-0.7-4.3-3.4-7.8-5.4-11.5c-1-1.9-2.9-3.5-5.4-3.7c-1.8-0.1-3.6-0.3-5.4-0.5c-0.9-0.1-1.3,0-1,1c0.2,0.7,0.2,1.6-0.8,1.7
			c-0.9,0-0.7-0.9-0.7-1.4C737.5,499.5,736.8,496.6,735.6,493.7z M632.5,464.6c1.6,0.9,3.3,0.8,4.9,1.3c3.5,1.1,7.1,1.5,10.7,1.7
			c3.3,0.2,6.7,0.1,10-0.1c2.8-0.2,5.6-0.3,8.4-0.8c8.6-1.3,16.7-4.3,24.7-7.6c5-2.1,9.9-4.2,14.7-6.4c6.1-2.9,12.4-5.2,19-6.7
			c1.6-0.4,3.2-0.7,4.8-1c0.5-0.1,1.1-0.1,0.8-1c-0.4-1.3-0.9-2.6-1.2-3.9c-0.1-0.5-0.3-0.7-0.8-0.5c-1.4,0.5-2.8,0.9-4.2,1.4
			c-3.4,1.2-6.2,3.5-10.1,3.6c-2.8,0-5.4,2-8.3,2.4c-1.7,0.2-3.4,0.8-4.8,1.9c-1.8,1.3-3.9,1.6-6.1,1.2c-1-0.2-1.9-0.2-2.7,0.1
			c-2.8,1-5.7,1.3-8.6,1.7c-5.9,0.9-11.9,1.6-17.9,1.4c-3.7-0.2-7.4-1.1-11.1-0.8c-1,0.1-2-0.4-2.7-1c-1-0.9-2.2-1.2-3.4-1.2
			c-1.9-0.1-3.8-0.5-5.5-1.3c-0.8-0.4-1.5-0.3-2.2,0.2c-1.4,1-2.8,1.9-4.2,2.9c-4.1,2.8-8,5.8-11.9,8.9c-0.3,0.3-1.1,0.5-0.4,1.2
			c1.3,1.2,3.2,1.1,4.5-0.3c1.4-1.5,2.9-3,4.5-4.2c2.3-1.7,4.7-2.6,7.6-1c-2,1.3-4.5,1.7-6.2,3.9c0.9-0.2,1.5-0.3,2.2-0.4
			c4.7-0.9,9.2-2.2,14-2.6c1.9-0.1,3.4,0.5,4.7,1.9c0.3,0.4,0.7,0.8,0.1,1.1c-1.1,0.4-2.1,1.3-3.5,0.6c-1.6-0.8-3.3-0.8-5-0.4
			c-3.6,0.9-7.2,1.8-10.8,2.7C635.2,463.8,633.9,464,632.5,464.6z M666.9,486.1c2,2,4,3.6,5.6,5.5c2.6,3.2,5.2,6.4,7.4,9.9
			c0.7,1.1,1.5,1.2,2.7,0.7c9.5-3.9,17.6-9.9,24.7-17.2c3.7-3.8,6.9-8.1,10.6-11.9c3.9-4,8.4-4.9,13.6-3c1.1,0.4,1.2,0.2,1.2-0.9
			c-0.2-2.5-0.4-4.9-0.3-7.4c0.1-1.4-0.5-1.8-1.5-2.2c-5.3-2-10.1-0.7-14.7,2.2c-5.3,3.4-9.8,7.9-14.9,11.6
			c-7.8,5.8-16.2,10.4-25.9,11.7C672.6,485.5,669.9,485.7,666.9,486.1z M692.3,518.8c0.3-0.2,0.4-0.5,0.3-0.8
			c-0.9-2.7-1.8-5.3-2.8-8c-0.1-0.4-0.3-0.8,0-1.1c0.8-1,2-1.3,3.2-1.3c1.2,0,2.1,0.5,2.7,1.6c1.1,2.2,2,4.4,3.3,6.4
			c1.7,2.6,1,2.6,3.7,0.8c0.4-0.3,0.7-0.6,1.1-0.8c2.2-1.2,2.9-2.9,2.1-5.3c-0.3-1.2-0.4-2.5,0.7-3.4c1.2-1,2.8-1.2,4.1-0.4
			c1.6,1,2.1,0.2,2.8-0.9c0.5-0.8,0.8-1.6,0.7-2.6c-0.1-0.8,0.2-1.5,0.8-1.9c1.5-0.9,2-2.3,2.4-3.8c0.5-1.5,0.8-3.1,1.1-4.7
			c1.2-7.3,4.7-9.7,11.8-8.1c1.1,0.2,1.1-0.5,1.2-1.1c0.3-2.8,0.9-5.6,0.8-8.4c-0.1-1.6-0.6-2.2-1.9-2.6c-4.2-1.2-7.9-0.4-10.9,2.7
			c-3,3.1-5.4,6.7-8.4,9.9c-5.1,5.6-10.6,10.7-17.1,14.7c-3.2,2-6.4,3.7-9.9,5.1c-1,0.4-1.5,0.6-0.6,1.8c1.9,2.5,3.5,5.2,5.4,7.8
			C690.1,515.9,690.9,517.5,692.3,518.8z M687,371.2c0.1-0.1,0.1-0.2,0.2-0.3c-1.8-1.1-3.6-2.3-5.4-3.2c-3.8-1.9-7.6-4-11.2-6.2
			c-5.2-3.1-10.1-6.7-15.1-10.2c-8.3-5.8-17-10.9-25.5-16.4c-0.4-0.3-0.9-0.9-1.3-0.6c-0.5,0.4-0.1,1,0,1.6
			c1.8,7.1,3.5,14.1,4.9,21.3c0.9,4.4,1.5,8.9,2.2,13.4c0.2,1.1,0.5,1.3,1.5,0.7c1.1-0.6,2.1-1.3,3.3-1.8c8.1-3.6,16.7-4.4,25.4-3.9
			c1.4,0.1,2.9,0.3,4.4,0c0-0.7-0.9-0.6-0.9-1.4C675.4,366.4,681.5,368.1,687,371.2z M899,546.4c0.2-2.5-0.2-4.9-0.5-7.3
			c-0.8-5.9-1.9-11.7-3.3-17.5c-0.5-2.2-1.5-4.3-2.1-6.4c-0.7-2.3-1.4-4.6-2-7c-1.1-4.2-2.9-8.1-6.2-11c-4.5-4-9.6-7.3-15.4-9.2
			c-2.3-0.7-4.7-1.5-7.4-1.7c1,1.9,2,3.6,2.9,5.3c1.2,2.3,2.6,4.6,3.6,7c0.7,1.8,1.2,3.5,2.7,4.8c10,8.9,17.5,19.7,22.9,31.8
			C895.8,539,897.4,542.7,899,546.4z M858,442.6c-0.3-1.2-0.2-2.1,0-3c0.3-1.2,0.3-2.3-0.8-3.2c-2.2-1.9-1.5-3.9,1-5.2
			c1.4-0.7,2.3-2.2,2.2-3.8c0-0.2,0-0.6-0.3-0.6c-0.2,0-0.5,0.1-0.5,0.2c-0.9,1.8-2.8,2.7-3.9,4.4c-0.4,0.6-0.7,0.8-1.3,0.3
			c-0.8-0.7-1.5-0.5-2.2,0.3c-3,3.4-5.4,7.2-7,11.4c-0.6,1.6-0.8,3.2-0.7,4.9c0.4,4.4,0.8,8.8,1.8,13.2c0.2,1.1,0.6,1.6,1.8,1.5
			c1.6-0.1,3.3,0.1,4.9,0.7c5.3,2,9.9,5.2,14.2,8.9c0.9,0.8,1.6,2,2.8,2.3c2.2,0.6,4.3,1.1,6.8,1.9c-0.7-1.7-1.6-2.8-2.5-4
			c-3.4-5.1-7.3-9.8-12-13.8c-3.3-2.8-6.6-5.5-11.4-5c-0.1,0-0.3-0.1-0.5-0.1c-1.3-0.2-1.4-0.9-0.7-1.9c0.8-1.1,1.9-1.6,3.2-1.9
			c0.9-0.2,1.8,0,2.6-0.4c4.2-2,8.1-1.1,12,0.7c1.1,0.5,2,1.2,3.4,1.3c-1.5-3.2-3.3-6-5.1-8.9c-0.5-0.8-1-1.4-2-1.5
			c-0.6-0.1-1.2-0.3-1.1-1c0.2-0.8-0.3-1.4-0.5-1.9C859.4,438,859.4,440.8,858,442.6z M622.2,392.7c-2.8-0.7-5.5-0.6-8.1-0.6
			c-9-0.1-17.6,2.2-25.9,5.6c-3.7,1.6-7.1,3.7-9.1,7.6c-1.9,3.7-2.4,7.7-2.2,11.9c0.1,2.2,0.7,2.4,2.5,1.3c2.2-1.4,4.5-2.8,6.9-3.9
			c3.3-1.5,6.4-3.3,9.4-5.4c6-4.3,12.2-7.9,19.5-9.4c1.8-0.3,3.3-1.9,4.3-3.3C620.5,395.4,621.2,394.1,622.2,392.7z M611.6,511.9
			c-0.1,4.3,0.5,8.5,1.1,12.8c0.4,3.7,0.9,7.4,2.6,10.9c0.5,1,1.2,1.3,2,1.4c0.8,0.1,0.9-0.7,1.2-1.2c2.3-4,4.1-8.3,6.1-12.5
			c0.9-1.9,0.9-3.6,0.3-5.5c-0.9-2.6-0.6-3.1,2.2-3.6c0.4-0.1,0.8-0.2,1.2-0.1c0.8,0.1,1.3-0.3,1.8-1c1.5-2.2,2.9-4.4,4.5-6.5
			c0.8-1,0.6-1.5-0.5-2c-4.1-2.1-8.1-4.4-11.2-7.9c-0.6-0.7-1.1-0.5-1.7,0c-1.6,1.4-3.4,2.8-4.9,4.3
			C610.6,506.6,611.8,504.1,611.6,511.9z M618.1,432.7c1.1,0.4,1.2-0.2,1.4-0.8c0.2-0.8,0.4-1.6,0.5-2.4c0.1-0.5,0.4-1.1-0.2-1.4
			c-0.5-0.2-0.8,0.3-1.2,0.6c-1.6,1.5-2.2,3.6-3,5.5c-3.5,8.4-7.8,16.3-14.2,22.9c-1.1,1.1-2.5,1.9-3.2,3.3
			c-4.3,8.7-7.6,17.8-8.8,27.6c-0.1,0.6-0.3,1.2,0.2,1.7c0.5-0.1,0.7-0.4,0.8-0.7c3.7-5.6,8.5-10.1,13.7-14.1c2-1.6,2-1.6,0.5-3.7
			c0,0,0-0.2,0.1-0.3c0.5,0.3,1,0.7,1.6,1c1,0.6,1.9,0.5,2.7-0.3c2.5-2.4,5.3-4.4,7.6-7c0.8-1,2.6-1.7,2.5-2.7
			c-0.1-1.2-2-1.6-3.1-2.3c-0.7-0.5-1.4-1.2-2.2-1.4c-1.1-0.3-1.4,1.1-2.1,1.6c-0.7,0.4-1.4,0.8-2.1,0.4c-0.9-0.5-0.6-1.3-0.5-2.1
			c0.2-1.7,1.9-3.4-0.4-5c1.7,0.4,1.6,0.4,2.3-1c0.7-1.4,1-2.9,1.5-4.4c0.7-1.8,1.4-3.5,2.2-5.2c0.4,2.7-1.1,5-1.2,7.6
			c0.7-0.1,0.7-0.6,0.8-1c1.7-4.4,3-9,4.2-13.6C618.8,434.6,619.1,433.7,618.1,432.7z M829.4,502.8c0.4-0.5,0.3-0.8,0.2-1.1
			c-0.7-2.3-0.9-4.7,0.2-6.9c0.3-0.7-0.2-1-0.6-1.4c-3.6-3.6-7-7.4-10.9-10.7c-4.3-3.7-8.6-7.4-13.3-10.5c-4.1-2.7-8.6-3.7-13.4-3.6
			c-2.8,0-3.6,0.8-3.7,3.5c-0.1,2.3-0.1,4.6-0.2,7c0,3.2,0,3.2,3,4.2c2,0.7,2,0.7,2.7-1.4c0.4-1.3,1.1-1.5,2.2-0.7
			c0.5,0.3,1,0.5,1.6,0.6c1.7,0.3,3.4,0.8,5.1,1.1c1.7,0.3,2.9,1.3,4.4,1.9c3.4,1.3,6.8,2.8,9.8,4.8c2.1,1.3,3.9,3,5.8,4.6
			c0.9,0.7,1.8,1.3,2.5,2.2C826.6,498.1,827.9,500.4,829.4,502.8z M824.5,507c1,2.4,2.5,4,3.8,5.7c1.2,1.6,2.1,3.4,2.3,5.5
			c0.1,0.9-0.2,1.7-0.9,2.2c-0.7,0.4-1.2,0.1-1.8-0.3c-3.3-2.3-6.4-4.7-9.4-7.3c-2.5-2.2-4.7-4.7-6.9-7.3c-0.4-0.5-0.7-1.4-1.7-0.6
			c-2.3,1.8-4.2,1.6-6.3-0.5c-2.3-2.3-3.1-5.3-4-8.3c-0.2-0.5-0.1-1.4-0.6-1.5c-0.6-0.1-0.8,0.7-1.1,1.1c-1.3,1.7-2.6,3.3-4.7,4.2
			c-1.7,0.8-1.7,0.8-0.4,2.3c4,4.4,8.7,8,14,10.7c1.7,0.8,3.3,1.7,4.9,2.8c1,0.8,2.2,2,3.9,1.7c0.4-0.1,0.7,0.2,1.1,0.5
			c1.5,1.2,3.1,2.4,5,3.2c3.5,1.4,6.8,3.1,9.7,5.5c2.3,1.9,4.7,3.8,6.2,6.5c0.5,0.9,0.6,2.5,1.4,2.5c0.8,0,1.6-1.3,2.4-2
			c0.9-0.7,0.7-1.3-0.1-1.9c-1.5-1.1-3.1-2.1-4.7-3c-0.3-0.2-0.6-0.3-0.9-0.5c-0.5-0.4-0.5-1-0.3-1.5c0.2-0.6,0.7-0.4,1.2-0.4
			c1.6,0.2,3,1.2,4.9,1.6c-0.5-0.4-0.7-0.6-0.9-0.8c-3-2.1-5.5-4.8-7.6-7.8c-2.1-3-3.9-6.2-5.6-9.4
			C826.8,508.6,826.1,507.6,824.5,507z M694.5,546c0.9,0.5,1.3,1.2,1.6,2c0.2,0.7,0.7,0.9,1.4,0.9c1.3,0,2.6,0,3.9,0
			c1.5-0.1,2.9-0.1,4-1.5c3.3-4.3,6.4-8.6,8.2-13.8c1.5-4.3,1.9-8.8,3.5-13c0.3-0.8,0.2-1.2-0.8-0.9c-1.2,0.5-2.5,0.6-3.6,0
			c-1.3-0.6-1.3,0.1-1.3,0.9c-0.1,1.4-0.1,2.8-0.8,4.1c-1.3,2.2-4.5,3.1-7.3,2.1c-0.4-0.2-0.9-0.6-1.3-0.3c-0.5,0.4-0.1,1,0,1.5
			c0,0.2,0.1,0.5,0.2,0.7c1.3,3.3,2.8,6.5,4.6,9.6c0.4,0.7,0.2,1-0.3,1.4c-1.3,1-3.4,0.8-5-0.5c-1.3-1.1-2.4-2.5-3.5-3.9
			c-2.3-3-4.5-6-6.8-9.1c-0.6-0.7-2.2-0.8-3.2-0.1c-0.9,0.7-0.1,1.3,0.2,1.9c1.4,3.1,3.3,5.9,4.6,9c0.7,1.7,1.4,3.4,2.6,4.9
			C696.6,543.7,696.7,544.8,694.5,546z M608.4,410.2c-1.5-0.2-2.6,0.4-3.8,0.8c-4.4,1.4-9,2.6-12.9,5c-4.6,2.9-8.4,6.9-12.1,10.8
			c-0.6,0.6-0.6,1.2-0.3,2c0.8,2.1,1.8,4,3,5.9c0.6,0.9,1.1,1.1,2.1,0.4c1.7-1.2,3.5-2.3,5.4-3.2c1.8-0.9,3.7-1.6,5.1-3.4
			c2.7-3.5,5.5-6.9,8.3-10.4C604.9,415.6,606.8,413.1,608.4,410.2z M874.6,441.3c-2.5-3.6-6.8-5.6-8.3-10c0.5-0.1,1,0.2,1.5,0.5
			c3.8,2.2,7.3,4.9,10.1,8.3c2.5,3,4.9,6.3,6.7,9.8c0.8,1.5,2.1,2.8,3.1,4.2c2.4,3.4,4.2,7,6.3,10.6c0.2,0.4,0.3,1,0.9,0.9
			c0.4-0.1,0.4-0.7,0.5-1.1c0.3-2.8-0.2-5.6-0.7-8.4c-0.7-3.6-2.5-6.6-4.3-9.7c-2.4-3.9-4.7-8-8-11.2c-4.3-4.1-9.4-6.8-15-8.5
			c-1-0.3-1.7-0.2-2.2,0.9c-0.5,1.3-0.8,2.5-1.1,3.8c-0.1,0.5,0.1,0.9,0.5,1.3c1.6,1.7,3.1,3.6,4.4,5.6c0.2,0.3,0.5,0.6,0.8,0.7
			C871.3,439.7,873,440.5,874.6,441.3z M848.4,510c3.9,2.1,7.3,4.7,10.2,7.8c5.9,6.2,10.3,13.2,13.7,21c1.8,4.2,3.4,8.5,7.1,11.5
			c0.3,0.2,0.5,0.6,0.8,0.7c0.3,0.2,0.8,0.5,1.1,0.1c0.2-0.2,0.2-0.7,0.1-1c-1.1-4.4-1.8-8.8-3.2-13.1c-1.2-3.5-1.9-7.1-3.2-10.6
			c-0.2-0.6-0.4-1.1-0.9-1.6c-3.3-3.7-6.7-7.2-10.3-10.5c-0.5-0.5-1.1-0.8-1.7-0.9c-2.2-0.7-4.4-1.4-6.5-2.4
			C853.2,509.9,851,509.2,848.4,510z M668.1,544.8c0.7,0,1.3,0,1.9,0c1.8-0.1,2-0.3,1.2-1.9c-2.2-4.4-4.1-9-6.5-13.3
			c-0.2-0.3-0.3-0.8-0.7-0.6c-0.4,0.2-0.2,0.6,0,0.9c0.7,1.4,1.1,2.9,1.5,4.4c0.3,1.2,0,2-0.9,2.7c-1.7,1.4-4.6,1-6.1-0.9
			c-0.9-1.1-1.7-2.3-2.5-3.5c-0.4-0.6-0.8-0.6-1.4-0.2c-0.7,0.4-0.8,1.1-0.7,1.7c0,1-0.1,1.8-0.9,2.6c-1.3,1.3-2.8,2.1-4.7,2
			c-1-0.1-1.8,0.3-2.5,0.9c-1.9,1.7-3,3.9-4.7,5.7c-0.3,0.3-0.7,0.7-0.5,1.1c0.2,0.5,0.8,0.3,1.2,0.3c2.9-0.2,5.8-0.5,8.8-0.6
			c3.7-0.2,7.3-0.5,10-3.4c0.4-0.4,1-0.8,1.7-0.7c0.6,0.1,1.7-0.2,1.1,1.1c-0.2,0.4,0.1,0.5,0.4,0.7
			C665.2,544.7,666.5,545.4,668.1,544.8z M768.5,426.8c-1,0.3-1.2,1.2-1.6,1.9c-0.2,0.4-0.1,1-0.7,1.2c-1,0.2-1,1-1,1.8
			c-0.4,13-1.4,26-1.3,39c0,5.8-0.3,11.6,0.4,17.3c0.2,1.4,0.8,1.7,2,1.6c1.4,0,1.1-1,1.1-1.8c0.5-6.9,0.4-13.7,0.1-20.6
			c-0.6-11.6,0.7-23,2.2-34.4c0.1-0.9,0.2-1.8-0.7-2.3c-0.9-0.5-0.9-1.3-0.7-2.1C768.4,427.9,768.8,427.5,768.5,426.8z M856.6,555.9
			c0.5-0.1,1.4,0.5,1.9-0.2c0.4-0.7-0.3-1.3-0.6-2c-2.8-6.1-6.7-11.4-10.9-16.6c-0.7-0.8-1.2-1-1.9,0c-1.2,1.6-2.5,3.2-3.9,4.8
			c-0.6,0.7-0.8,1.5-0.7,2.4c0.3,1.9,0.5,3.8,0.7,5.7c0.1,0.8,0.1,1.5-0.4,2.2c-1.1,1.5-0.7,2.4,1.2,2.5
			C846.8,555.1,851.6,555.5,856.6,555.9z M636.1,503.2c0.6,0,0.7,0,1.2-0.8c2.4-3.5,5.3-6.4,9.2-8.2c0.8-0.4,0.8-0.8,0.3-1.4
			c-1.4-1.9-2.8-3.8-4.1-5.8c-0.4-0.6-0.9-0.9-1.4-0.2c-1.1,1.3-2.5,1.6-4.1,1.7c-2.3,0-4.4,0.6-6.4,1.6c-2.3,1.2-4.5,2.7-6.6,4.2
			c-0.9,0.6-1,1.1-0.1,1.8c3.5,2.9,7.4,5.1,11.5,6.9C635.8,503.1,636,503.1,636.1,503.2z M640.3,484.6c-0.7-0.7-1.3-0.7-1.9-0.8
			c-2.3-0.3-4.8-0.3-7-0.9c-3.5-0.9-7.1-1.5-10.5-2.5c-0.9-0.3-1.5-0.2-2.1,0.7c-1.2,2.1-2.6,4.1-3.8,6.2c-0.5,0.8-1,1.5-1.2,2.5
			c-0.3,2.2-0.8,4.4-1.1,6.6c-0.1,1.4-0.7,2.7-0.2,4.4c2.2-2.2,4.3-4.2,6.6-6c0.9-0.7,1.7-1.4,0.8-2.8c0.9,1.4,1.7,0.8,2.6,0.2
			c4-3,8-6,13.1-7C637.1,484.8,638.6,484.7,640.3,484.6z M660.5,496c-3.9,1.4-3.1,0.7-1.2,3.8c0.2,0.3,0.3,0.7,0.8,0.5
			c0.6-0.2,0.7,0.4,0.6,0.6c-0.1,0.9,0.6,1.4,0.8,2c0.5,1.1,1.8,1,2.2,1.9c1.1,2.4,2.9,2.8,5.2,1.9c0.6-0.2,1.2-0.3,1.8-0.4
			c0.9-0.2,1.2-0.4,0.6-1.4c-1.7-2.8-3.3-5.7-5-8.5c-1.9-3.1-3.6-6.2-5.8-9.1c-0.5-0.7-1.1-1-1.9-0.8c-1,0.3-2,0.1-2.9-0.3
			c-1.7-0.8-3.5-0.7-5.3-1c-0.4-0.1-1.1-0.2-1.3,0.2c-0.3,0.5,0.2,1,0.5,1.3c1.8,2.3,3.6,4.6,5.3,7c0.9,1.3,2.1,1.7,3.5,1.7
			C659.2,495.5,659.9,495.4,660.5,496z M612.5,535c-0.1-0.3-0.1-0.5-0.2-0.8c-0.9-6.6-4.5-12.2-6.9-18.3c-0.4-1.1-0.9-0.9-1.4,0
			c-3.2,5.5-5.6,11.2-7.1,17.4c-0.2,0.7,0,1,0.8,1.1c4.7,0.1,9.4,0.2,14,1.3C612.2,535.8,612.7,535.7,612.5,535z M592.8,526.4
			c0.4-1.2,0.7-2,0.9-2.8c1.6-6.4,4-12.6,7.1-18.4c0.5-1,0.6-2,0.4-3.1c-0.5-2.8-0.6-5.6-0.4-8.5c0.1-1.4,0.6-2.8,0.1-4.2
			C591.7,500.1,589.5,512.5,592.8,526.4z M874.5,557.2c1,0.1,1-0.5,0.7-1.1c-0.4-0.8-0.9-1.5-1.4-2.2c-2.9-3.6-5.9-7.3-8.9-10.9
			c-2-2.4-4-5-7.2-6.1c-0.3-0.1-0.7-0.5-1-0.3c-0.4,0.3-0.3,0.8-0.2,1.1c0.3,1.3-0.1,2.2-1.2,2.9c-0.5,0.4-0.4,0.7-0.1,1.1
			c3,4.2,5.5,8.7,7.8,13.3c0.3,0.6,0.8,1.1,1.5,1.2C867.9,556.8,871.2,557.1,874.5,557.2z M715.1,549.7c0.7-0.6,2.2,0.4,2.5-1.1
			c1.1-5.5,2.2-11.1,3.3-16.7c0.6-2.9,1.5-5.8,2.5-8.5c0.6-1.6,1-3.4,0.9-5.1c-0.1-1-1.4-0.8-1.9-1.6c-0.5-1-1-0.6-1.3,0.2
			c-0.8,2.2-1.6,4.4-2,6.7c-1.6,8.9-5,17-10.5,24.2c-0.3,0.4-0.9,0.9-0.7,1.3c0.3,0.5,1,0.6,1.7,0.6
			C711.4,549.5,713.2,549.4,715.1,549.7z M618.8,409.2c0.4-1.1-0.4-1.2-2-1c-2,0.2-3.3,1-4.4,2.8c-3.4,5.1-7.3,9.7-11.1,14.5
			c-0.3,0.3-0.9,0.7-0.5,1.1c0.3,0.4,0.9,0.1,1.3,0c3.7-1.1,7.4-1.8,11.3-1.9c1.5,0,2.6-0.3,2.7-2.1c0-0.7,0.5-1.4,0.7-2
			C617.7,417.1,618.4,413.6,618.8,409.2z M599.5,537.4c-0.5,0-0.9,0-1.4,0c-1.7,0-1.8,0.1-1.1,1.6c1.5,3.3,3.4,6.2,5.4,9.2
			c0.5,0.8,1.2,1.2,2.2,1.1c1.6-0.2,3.2-0.3,4.8-0.3c4-0.2,4-0.2,5.2-4c0.1-0.3,0.2-0.6,0.3-0.9c0.4-1.4-0.8-4.3-2-4.6
			C608.6,538.3,604.1,537.3,599.5,537.4z M751.5,482.4c0.1,0,0.2,0,0.3,0c0-1.4,0.1-2.9,0-4.3c-0.8-10.4-2.3-20.6-4.9-30.7
			c-2.1-8-5.1-15.7-8.1-23.4c-0.3-0.7-0.6-1-1.4-0.8c-1,0.3-0.4,0.9-0.2,1.4c1.4,4.4,2.9,8.8,4.2,13.2c2.1,7.2,3.8,14.6,5.2,22
			c1.8,9.2,3.9,18.3,3.2,27.7c0,0.6,0.2,1,0.9,1c0.8,0.1,0.8-0.5,0.8-1C751.5,485.8,751.5,484.1,751.5,482.4z M667.9,441.8
			c0.6,1.1,1,2,1.5,2.8c0.5,0.9,1,1.8,1.8,2.5c1.3,1.3,1.6,1.3,2.5-0.3c2.8-5.3,3.8-10.8,1.3-16.5c-1.1-2.5-1-2.4-3.8-1.9
			c-1.1,0.2-1.4,0.6-1.4,1.7c0,4.3-1.1,8.3-2.8,12.2c-1.2,2.7-2.4,5.3-4.4,7.4c-0.3,0.3-0.4,0.7,0.2,0.8c2.2,0.1,4.4,0.7,6.6,0
			c1-0.3,1.5-0.8,0.6-1.7C668.2,446.9,667.8,444.6,667.9,441.8z M629.1,547.6c1.7-0.3,3.9,0.3,5.2-0.9c3-2.7,5.8-5.7,8.6-8.6
			c0.7-0.7,0.7-1.3-0.1-2.1c-3.1-3-5.7-6.4-8.1-10c-0.4-0.6-0.7-1.7-1.5-1.3c-0.7,0.4-0.1,1.3,0.3,1.9c1.6,2.9,2.5,6,3.7,9
			c0.9,2.2,0.3,3.9-1.7,5.2c-1.5,1-3.2,1.5-4.9,1.6c-2.6,0.2-5.1-0.2-7.7-0.8c-0.6-0.2-1.4-0.5-1.8,0.5c-0.6,1.5-1.5,2.8-2.1,4.3
			c-0.7,1.6-0.5,1.8,1.2,1.7C623.2,547.9,626.2,548,629.1,547.6z M864.2,476.5c1.1-1.5,1.1-1.5-0.3-2.7c-2.2-1.9-4.5-3.8-6.9-5.4
			c-2.6-1.8-5.4-2.9-8.5-3.4c-1-0.2-1.3,0.2-1,1.2c0.3,0.9,0.8,1.8,1.5,2.5c2.1,2.1,4.2,4.2,5.7,6.7c1.7,2.9,4.1,3.8,7.2,4.1
			c1.6,0.2,1.8,0.5,1,2.2c3.5-0.8,6.6,0.7,9.9,1.2c-1.7-2.1-3.4-4.2-5.4-5.9C866.3,476.1,865.5,475.5,864.2,476.5z M724.8,416.2
			c-0.4,1.9-0.7,3.7-2,5.2c-3.4,3.9-7.7,5.5-12.7,5.4c-0.4,0-0.9-0.3-1.1,0.2c-0.2,0.4,0.3,0.8,0.6,1c1.3,0.6,2.7,1.2,4.1,1.8
			c0.6,0.3,1.3,0.5,1.9,0.3c3.6-1.4,7.6-2.2,9.8-6c0.2-0.4,0.5-0.9,1.1-1c0.1,0.5-0.3,1,0,1.7c1.6-0.8,3-1.7,4.3-2.8
			c0.2-0.2,0.3-0.5,0.3-0.8c-0.1-1-0.1-1.9-0.3-2.9c-0.1-0.7-0.3-1.6-1.1-2c-1.8-1-3.5-1.9-5.3-2.8c-0.4-0.2-0.8-0.3-1.1,0.3
			c-1.7,3.4-4.6,5.4-7.6,7.5c-1.8,1.2-3.8,2-6.1,1.7c-0.7-0.1-1.1,0.2-1.1,0.9c0,0.7,0.4,0.8,0.9,0.7c4.1-0.9,8.2-1.6,11.4-4.7
			C722.1,418.6,723.4,417.4,724.8,416.2z M837.7,430.5c-0.5-0.1-0.6-0.2-0.7-0.2c-3,1.7-6.1,3.3-9.1,5c-0.5,0.3-0.4,0.7-0.4,1.2
			c0,2.9,0.3,5.8,0.5,8.6c0.6,6.8,2.1,13.3,5.3,19.4c0.5,1,1,1.9,1.8,2.7c0.4,0.4,1,0.5,1.4,0.2c0.4-0.3,0.1-0.8-0.1-1.1
			c-0.1-0.4-0.3-0.8-0.5-1.1c-3.3-8.4-5.1-16.9-2.4-25.8C834.5,436.3,834.2,432.6,837.7,430.5z M871.5,407.1
			c3.1-2.5,3.6-2.5,6.1,0.2c0.4,0.4,0.7,0.8,1,1.2c3.7,4.8,7,9.9,10.3,15.1c2.5,4,5.1,8,7.3,12.3c2.1,4.3,4.3,8.6,6.3,13
			c0.7,1.5,1,3,1.6,4.5c0.1,0.3,0,0.9,0.6,0.7c0.5-0.1,0.6-0.6,0.4-1c-0.4-0.7-0.3-1.5-0.5-2.2c-1.7-5.6-3.8-11-6.3-16.2
			c-4.5-9.6-10.5-18.3-17.5-26.3c-2.5-2.8-5-5.7-8.1-7.8c-0.9-0.6-1.1-0.4-1.3,0.5C870.9,403,871,405,871.5,407.1z M639.3,446.6
			c-3.9-1.7-7.6-3.3-11.1-5.4c-0.7-0.4-0.7,0.3-1.1,0.7c0-0.3,0.1-0.5,0.1-0.7c0-0.9-0.6-1.3-1.4-1.4c-0.9-0.1-0.7,0.8-0.7,1.3
			c-0.4,2.7-0.7,5.4-0.9,8.1c-0.2,2.5-0.6,5-0.4,7.5c0,0.3-0.2,0.8,0.3,0.9c0.4,0.1,0.6-0.3,0.9-0.5c2.1-1.6,4.2-3.3,6.4-4.9
			C633.9,450.4,636.5,448.6,639.3,446.6z M837.7,421.2c0,0.8,0.7,1.4,0,1.8c-0.8,0.4-1.1-0.4-1.5-0.8c-0.8-0.8-1.5-1.7-2.3-2.5
			c-0.9-1-1.8-1.8-2.9-0.3c-0.3,0.4-0.8,0.4-1.3,0.5c-1.5,0.4-3,0.8-4.5,1c-1.3,0.2-2.6,0.2-3.8-0.2c-0.3-0.1-0.7-0.5-1-0.2
			c-0.3,0.3-0.1,0.8-0.1,1.2c0.3,1.3,0.5,2.5,0.5,3.8c0,0.6,0,1.2,0.4,1.6c1.9,2,4.4,3.1,6.9,4c1.3,0.5,2.4-0.8,3.5-1.3
			c0.2-0.1,0.5-0.2,0.7-0.3c2.3-1.1,4.7-2.2,7.1-3.2c1.4-0.6,0.8-2,1.2-2.9c0.3-0.8-0.7-1-1.2-1.3
			C839,421.9,838.4,421.6,837.7,421.2z M610.2,428.4c-0.2,0-0.4,0-0.6,0c-4.9,0.6-9.4,2.2-13.9,4.2c-0.3,0.1-0.6,0.4-0.9,0.6
			c-2.2,2.6-4.4,5.2-6.6,7.8c-0.5,0.6-0.5,1.1,0.1,1.6c1,0.9,2,1.8,2.9,2.8c0.9,0.9,1.6,0.8,2.4-0.2c1.8-2.2,3.6-4.4,5.5-6.5
			C602.5,435,606.2,431.6,610.2,428.4z M846.1,487.6c0.1-1.3-0.1-2.4-0.7-3.6c-1.3-2.8-3.6-4.6-6.1-6.2c-1.5-0.9-1.7-0.8-1.7,0.9
			c-0.2,4-1.9,7.1-5.6,8.9c-0.9,0.4-0.8,0.7-0.2,1.4c2.4,2.7,5.5,3.1,8.8,2.6c1-0.2,1.9-0.4,2.9-0.5c2.3-0.3,2.3-0.3,2.5-2.6
			C846.1,488.2,846.1,487.9,846.1,487.6z M840.4,428.3c-0.1-0.1-0.2-0.1-0.3-0.2c-0.5,0.9-2,0.9-1.9,2.2c0.2,3.3-0.8,6.4-1.5,9.6
			c-1.6,7.1-0.3,14,1.7,20.9c0.4,1.4,0.7,2.5,2.8,2.3c1.2-0.2,1.2-0.4,1-1.3c-1.4-7.7-1.8-15.5-1.7-23.3
			C840.4,435.1,840.4,431.7,840.4,428.3z M813.2,383.8c0.1-1.5-1.4-1.7-2.2-2.2c-0.6-0.3-1.5-0.4-2.1,0.3c-1,1.2-2.1,2.4-2.9,3.8
			c-3.5,6.4-6.6,12.9-10.4,19.1c-0.3,0.4-0.8,1.1-0.3,1.5c0.4,0.3,1.1,0,1.6-0.5c2.5-2.3,5-4.6,7-7.4c3.1-4.4,5.9-8.9,8.9-13.4
			C812.9,384.7,813.2,384.3,813.2,383.8z M787.7,487.8c0.1,0.2-0.3,1.2,0.5,0.8c2.2-1.2,1.7,0.9,1.9,1.7c0.3,1.4,0.3,2.9,0.6,4.3
			c0.4,2.1,1.7,2.6,3.4,1.2c1.4-1.1,2.6-2.5,3.5-4.1c0.4-0.7,0.8-1.3,1.4-1.9c0.8-0.8,1.3-0.8,1.8,0.3c0.8,1.7,1.4,3.6,1.8,5.4
			c0.7,2.6,1.6,5,4.4,6.1c0.5,0.2,1,0.7,1.6,0.1c0.5-0.5-0.1-1-0.2-1.4c-1.2-2.9-2.2-5.8-1.4-9c0.3-1-0.4-1.4-1.2-1.7
			c-2.2-0.8-4.4-1.5-6.7-2c-0.4-0.1-0.9-0.3-1.3,0.1c-0.9,0.7-2,0.7-3.1,0.5c-2-0.2-4-0.7-5.8-1.6
			C788,486.3,787.5,486.6,787.7,487.8z M606,477c-0.2,0.1-0.5,0.2-0.7,0.3c-5,3.5-9.6,7.5-13,12.6c-1.9,2.8-4,5.5-3.6,9.3
			c0.2,2,0.2,4,0.3,6c0,0.9,0.1,1.8,0.4,2.8c0.2-0.3,0.3-0.4,0.4-0.5c0.1-0.3,0.2-0.7,0.3-1c1.7-8.9,5.9-16.4,12.4-22.8
			C604.3,481.8,604.7,479.2,606,477z M662.8,517c-0.9-1.5-2.1-2.9-2.8-4.5c-0.8-1.8-2.2-2.1-4-2.2c-5.7-0.1-11.1-1.6-16.5-3.4
			c-1.1-0.4-1.5-0.1-2,0.8c-1.3,2.6-2.7,5.1-4.1,7.7c-0.3,0.5-0.5,1,0.1,1.5c0.6,0.5,1-0.1,1.5-0.4c3.2-1.9,6.4-3.7,10.4-3.2
			c1.8,0.2,3.4,0.8,5,1.4c1.2,0.4,1.5-0.1,1.1-1.1c-0.6-1.6,0.4-2.2,1.7-2.5c1.8-0.4,3.4,0,4.7,1.3
			C659.6,513.9,661.1,515.5,662.8,517z M675.9,482.3c1.8-0.5,3.4-0.9,5-1.3c0.5-0.1,1.2-0.2,1.5-0.7c2.9-4,3.9-8.2-0.4-12.5
			c-0.8-0.8-1.6-1.6-2.7-0.5c-0.2,0.2-0.6,0.3-0.7,0.2c-1.5-0.8-2.7,0.2-4,0.5c-1.7,0.4-1.7,0.4-0.5,1.7c3.1,3.5,4.5,7.3,2,11.7
			C676,481.6,676,481.8,675.9,482.3z M808.7,416.7c-1.9,0.7-3.7,0.7-5.5,0.3c-1.3-0.3-2.7-0.1-4-0.2c-1.3-0.1-2.9-0.5-4.2-1.1
			c-1.7-0.7-3.8,0.5-4.3,2.3c-0.3,1-0.6,2.1-0.9,3.1c-0.3,0.9,0,1.1,0.9,1c6.1-1.1,12.3-1.1,18.4-2.1c0.4-0.1,0.8-0.1,0.9-0.6
			c0.7-2.2,1.5-4.5,2.3-6.9c-3.1,0.1-6,0.5-8.8,1.2C805.4,414.2,807.3,414.9,808.7,416.7z M843.1,508.2c0-0.7-0.3-1.4-1-2
			c-0.9-0.7-1.7-1.5-2.4-2.4c-1.9-2.7-3.8-5.3-6.6-7c-0.3-0.2-0.6-0.7-1-0.5c-0.5,0.2-0.5,0.8-0.5,1.2c0,1.3,0.2,2.7,0.7,3.9
			c1.2,3.1,2.6,6.2,4.4,9c0.3,0.4,0.5,0.9,1.2,0.8c1.9-0.2,3.2,0.8,4.4,2.1c0.9,1,1.9,1.9,2.8,2.9c0.4,0.4,0.8,1.1,1.3,0.9
			c0.6-0.3,0.8-1.1,0.7-1.7c-0.2-1.1-0.4-2-1.6-2.6C843.8,511.8,842.6,510.5,843.1,508.2z M602.2,501.5c0.1,0,0.3,0.1,0.4,0.1
			c1.7-2.8,3.2-5.6,5-8.3c2.5-3.7,4.5-7.6,4.9-12.2c0-0.4,0.3-0.9-0.1-1.1c-0.3-0.2-0.7,0.1-1,0.3c-1.1,0.7-2.2,1.5-3.4,2.2
			c-2.8,1.9-5,4.1-5.6,7.7C601.8,494,601.4,497.7,602.2,501.5z M653.9,507.6c0.4,0,0.7,0.1,1.1,0.1c0.5,0,1.3,0.4,1.6-0.1
			c0.3-0.5-0.3-1.1-0.6-1.6c-1.3-1.9-2.6-3.7-3.7-5.6c-1.4-2.4-2.2-2.8-5.4-1.6c-2.5,1-4.4,2.9-6.3,4.8c-0.7,0.7-0.5,1,0.4,1.3
			C645.1,506.6,649.4,507.4,653.9,507.6z M679.9,524.3c0.3,0,0.6,0,0.8,0c1.8-0.1,1.8-0.2,1-1.7c-0.8-1.6-1.7-3.1-2.6-4.7
			c-1.5-2.8-3.1-5.5-4.9-8.2c-0.4-0.6-0.7-1.3-1.7-1c-1.4,0.3-2.8,0.6-4.2,0.9c-0.8,0.2-1.1,0.8-0.8,1.3c0.5,0.8,0.6,1.8,1.5,2.2
			c1.2,0.7,2,1.9,2.9,3c1.8,2.3,3.6,4.7,5.3,7.1C678,524.2,678.8,524.6,679.9,524.3z M700.2,358.8c-0.7,2.3,0.8,3.6,3.4,4.3
			c0.4,0.1,0.9,0.3,1.2,0.6c0.5,0.5,0.9,0.5,1.2-0.2c0.5-1.1,1.2-2.2,1.6-3.3c0.3-1-0.1-2-0.7-2.8c-0.4-0.6-1.2-0.5-1.8-0.2
			c-0.4,0.2-0.8,0.7-1.2,0.1c-0.3-0.4,0.1-0.9,0.4-1.2c1.1-1,0.9-2,0.1-3c-0.2-0.2-0.3-0.5-0.4-0.8c-0.1-0.3-0.2-0.6,0.1-0.8
			c0.3-0.3,0.6-0.1,0.8,0.1c0.4,0.4,0.8,0.8,1.2,1.2c0.5,0.5,1.1,0.8,1.8,0.4c0.7-0.4,0.3-1,0.3-1.5c-0.1-2.1-1.4-3.6-2.5-5.3
			c-0.8-1.3-1.5-1.3-2.2,0C701.1,350,700,353.9,700.2,358.8z M759.3,377.1c0.9-0.4,0.3-1.4,1.1-1.7c0.5,0.2,0.5,0.7,0.5,1.1
			c0.1,3.9,0.5,7.9,0.3,11.8c0,0.6,0.1,1.3,0.4,1.8c0.4,0.6,0.8,1.4,1.7,1.4c0.9,0,1.1-0.8,1.3-1.6c0.5-3,0.4-6,0.6-9.1
			c0.2-3-0.1-6,0.7-8.9c0.2-0.6,0.1-1.3,0.2-2c0-0.6-0.2-0.7-0.8-0.7c-1.7,0.2-3.5,0.3-4.3,2.3c-0.2,0.4-0.5,0.8-0.8,1.1
			C758.8,374,758.9,375.5,759.3,377.1z M742.5,336.4c-4.5,3.6-8,7.7-10.4,12.7c-0.4,0.8-0.1,1.2,0.6,1.4c1.3,0.4,2.5,1,4.1,0.8
			c0.9-0.1,2.2,0.4,3.4,0.5c1.2,0.1,1.4-0.3,1.4-1.4c-0.1-3.7-0.1-7.4,0.7-11.1C742.4,338.4,742.8,337.6,742.5,336.4z M649.4,470.6
			c0.5,1.2,1.1,1.6,2,1.7c1.1,0.1,2.2,0.3,3.3,0.5c0.4,0.1,1.1,0.2,1,0.7c-0.1,0.6-0.7,0.4-1.2,0.5c-2.6,0.3-2.6,0.4-2.5,2.8
			c0,0.5,0,0.9-0.1,1.4c-0.1,0.7,0.1,1.2,0.6,1.6c1.3,1,2.5,2,3.8,2.9c2.3,1.3,4.2,0.4,4.4-2.1c0.3-3.5-0.8-6.6-2.8-9.4
			c-0.3-0.4-0.6-0.5-1.1-0.5C654.6,470.6,652.1,470.6,649.4,470.6z M883.4,478.1c0.5-0.6,0.2-1,0.1-1.3c-1.9-4.6-3.8-9.2-6.1-13.6
			c-0.8-1.4-1.3-3.5-2.5-4.1c-2.2-1.2-3.6-3.2-5.6-4.4c-2.1-1.3-4.3-2.4-6.8-2.9c-0.4-0.1-0.8-0.3-1.1,0.2c-0.2,0.5,0.2,0.7,0.5,1
			c0.2,0.2,0.4,0.3,0.6,0.4c6.5,4.5,11.4,10.5,15.8,16.9C880.1,472.7,881.6,475.4,883.4,478.1z M826.9,469.7c-0.2,2-0.1,4.1-1.3,5.6
			c-1.7,2.4-1,4.1,0.8,5.9c0.5,0.5,0.8,1.1,1.2,1.6c1.1,1,2.2,2.4,3.8,2c1.5-0.3,1.7-2.1,1.8-3.3C833.8,476,832.7,472.9,826.9,469.7
			z M679.6,434.9c0,5.7-1.5,10.1-4.8,13.8c-0.7,0.8-0.4,1,0.3,1.2c2.1,0.7,5-0.2,6.3-2.1c2.4-3.7,2.6-7.7,1.8-11.9
			c-0.4-2-1.2-3.9-2.3-5.7c-0.4-0.7-1.1-0.8-1.7-0.6c-0.8,0.3-0.2,0.9-0.1,1.3C679.5,432.5,679.6,434.1,679.6,434.9z M789.1,423.2
			c0.7,1.2,0.7,2,0.4,2.8c-0.4,1.1,0.1,1.5,0.9,1.9c1.4,0.6,2.7,1.3,4,2c0.9,0.5,1.6,0.4,2.5,0c3.6-1.7,7-3.7,10.9-4.6
			c0.8-0.2,1.5-0.3,1.3-1.4c-0.2-1.2-1-0.7-1.7-0.7C801.5,423.5,795.6,424.7,789.1,423.2z M684.1,449.2c0.2,0,0.4,0.1,0.6,0.1
			c0.9-0.1,1.8-0.3,2.7-0.4c4.1-0.8,4.3-0.8,4.8-5c0.6-4.8-0.3-9.2-4.7-12.2c-0.3-0.2-0.6-0.6-1.1-0.4c-0.6,0.3-0.3,0.8-0.2,1.2
			c1.4,5.7,1.4,11.2-2.2,16.3C684,448.9,684.1,449.1,684.1,449.2z M642.4,517c-2,0.2-3.6,1.2-5.3,2.1c-1,0.5-1.1,1-0.4,1.9
			c0.8,0.9,1.5,1.9,2.1,2.8c1.9,2.9,4.3,5.5,6.7,8.1c0.6,0.7,1,0.6,1.5-0.2c0.4-0.7,0.6-1.3,0.4-2c-1.3-4-2.6-7.9-3.9-11.9
			C643.3,517.2,643,516.9,642.4,517z M673.4,478.5c0-2-1.6-5.3-3.5-7.6c-1-1.1-2-1.7-3.5-1.2c-0.8,0.2-1.6,0.3-2.4,0.3
			c-1.2,0-1.2,0.5-0.7,1.4c0.9,1.5,1.5,3.2,1.6,5c0,2,1.3,2.8,2.7,3.6c0.7,0.4,1.5,0.7,2.3,0.9C672.1,481.9,673.4,480.9,673.4,478.5
			z M805.9,464.2c1.3,2,2.7,3.7,4.4,5c1.3,1,1.8,0.8,2.2-0.7c1.9-6.7-0.7-11.5-6.9-14c-0.3-0.1-0.6-0.4-1,0c1.5,3.2,1.3,6.4,0.5,9.7
			c-0.1,0.3-0.8,0.8,0,1.1C805.9,465.6,805.6,464.7,805.9,464.2z M687.1,478.2c1.1-0.5,2.5-0.2,2.2-2c0-0.3,0.2-0.7,0.9-0.5
			c2.1,0.6,3.7-0.5,4-2.7c0.4-3-0.7-5.5-2.6-7.8c-2-2.4-2-2.4-4.8-1.3c-0.5,0.2-1.1,0.4-1.6,0.6c-1.1,0.3-1.1,0.7-0.2,1.5
			c2.6,2.3,3.7,5.3,3,8.8C687.7,475.8,687.4,476.8,687.1,478.2z M759,368.4c1.8-2.5,3.5-5,4.5-7.8c0.2-0.7-0.1-1-0.7-1
			c-3.2-0.3-6.5-0.2-9.6,0.7c-0.6,0.2-0.8,0.4-0.7,1.1c1,3.8,1.9,7.6,2.8,11.4c0,0.1,0.2,0.1,0.4,0.1c0.2-0.9,1.4-1.2,1.4-2.3
			c0-1.8-0.2-3.5,0.9-5.1C758.1,366.3,758,367.5,759,368.4z M782.5,387.4c0.9-0.9,1.3-1.8,1.9-2.7c1.3-2.3,2.5-4.7,4.1-6.9
			c1.4-2,1.9-4.4,2.4-6.8c0.2-1-0.4-0.7-0.9-0.5c-2.3,1.2-4.7,2.4-6.5,4.4c-0.3,0.3-0.5,0.7-0.7,1c-1.2,3-2.2,6.1-2.9,9.3
			c-0.2,0.8-0.2,1.3,0.9,0.8C781.9,385.6,782.7,385.8,782.5,387.4z M822.5,470.5c0.2-3.6-1.3-6.6-4.3-8.8c-0.2-0.2-0.4-0.5-0.8-0.4
			c-0.3,0.2-0.2,0.5-0.2,0.8c0.2,3.5-0.6,6.6-2.9,9.3c-0.3,0.3-0.5,0.6,0,1c1.7,1.3,3.3,2.7,5,4c1.2,0.9,1.8,0.8,2.4-0.7
			C822.3,474.3,822.6,472.5,822.5,470.5z M730.7,357.7c0.2,2.8,0.8,5.4,1.5,7.9c0.9,3.1,0.9,3.1,3.4,1.2c0.1-0.1,0.2-0.2,0.4-0.3
			c1.1-0.4,1.2-1.1,0.6-1.9c-0.7-0.9,0.4-1,0.6-1.3c0.3-0.5,0.7,0.1,0.9,0.4c0.3,0.4,0.5,0.9,1.1,0.6c0.5-0.3,0.3-0.8,0.2-1.3
			c-0.4-2.2-1.1-4.4-1.9-6.5c-0.9-2.4-0.4-2.5-3.1-1.5c-0.8,0.3-1.6,0.6-2.5,0.9C730.9,356.2,730.4,356.8,730.7,357.7z M812.7,441.6
			c-0.2,4.3,0.9,8.2,3.1,11.8c0.7,1.2,1.9,1.9,3,2.6c0.6,0.4,1.1,0.2,1.5-0.2c0.5-0.5,0.2-1-0.1-1.4c-0.8-0.9-1.1-2.1-1.4-3.2
			c-1.1-3.6-1.4-7.4-1.3-11.1c0.1-1.7-0.7-2.2-2.1-1.9c-0.9,0.2-2-0.8-2.6,0.1c-0.5,0.7-0.2,1.9-0.1,2.9
			C812.7,441.4,812.7,441.5,812.7,441.6z M746.6,397.6c-0.1-0.6-0.1-1-0.2-1.3c-1.9-5.8-3.2-11.9-5.3-17.7c-0.9-2.5-2-4.9-2.6-7.4
			c-0.2-0.9-0.1-2.1-1-2.5c-0.8-0.3-1.4,0.7-2,1.2c-1.5,1.1-1.6,1.5-0.6,3c0.5,0.7,0.9,1.5,1.2,2.3c1.9,4.3,3.4,8.7,5.4,13
			C743.1,391.3,744.7,394.4,746.6,397.6z M783.8,495.2c0.3-0.6,0.2-1.1,0.1-1.5c-0.9-4.4-0.9-8.9-1.3-13.3c-0.1-0.8,0-1.7,0.5-2.2
			c0.9-0.8,0.8-1.7,0.8-2.7c0-4.5,0-9,0-13.5c0-1.3-0.3-2.6-0.4-3.9c-0.5,0.9-0.6,1.8-0.7,2.7c-0.6,6.2-1.3,12.4-1.8,18.6
			c-0.4,4-1,8.1-1,12.1c0,0.8,0.2,1.2,1,1.6C781.9,493.6,783.1,494,783.8,495.2z M629.7,540c2.5,0.1,3.4-0.7,3.1-2.2
			c-0.7-3.5-2.4-6.6-4-9.8c-0.5-1.1-1-0.9-1.5,0.1c-1.3,3.1-2.7,6.2-4.1,9.3c-0.2,0.5-0.4,1,0.4,1.2
			C625.7,539.2,627.8,539.8,629.7,540z M887.7,429.4c0.1,0,0.1,0,0.2,0c-0.8-1.2-1.5-2.5-2.3-3.7c-3.5-5.3-7-10.6-11.3-15.3
			c-0.5-0.6-1.1-1.2-2-0.9c-0.9,0.3-0.2,1.2-0.4,1.9c-0.5-0.3-0.1-1.3-1-1.2c-0.7,0.1-0.5,0.8-0.7,1.2c-0.8,1.3,0.1,2,1,2.6
			c3.2,2.4,6.1,5.3,9,8.1C882.6,424.4,885.1,426.9,887.7,429.4z M791.1,451.5c0.9,0.7,2,0.9,2.7,1.8c2,2.6,2.8,5.5,1.9,8.7
			c-0.3,0.9-0.2,1.3,0.8,1.5c1.4,0.4,2.9,0.5,4.3,1c0.8,0.3,1.1-0.3,1.2-0.9c0.4-3,0.1-5.9-1.7-8.6
			C798,451.7,794.6,450.8,791.1,451.5z M896.7,488.4c-0.3-1.9-0.7-3.7-0.9-5.6c-0.3-2.7-1.5-4.9-3.3-6.8c-0.4-0.4-0.7-0.9-1.3-0.5
			c-1,0.6-1.9,1.2-2.9,1.8c-0.4,0.3-0.6,0.7-0.4,1.2c0.9,2.5,1.7,5,3.3,7.2c1.1,1.4,2.5,2.4,3.7,3.6c0.4,0.4,0.8,1,1.4,0.7
			C897,489.6,896.7,488.9,896.7,488.4z M693,431.8c3.2,5,3.6,10.1,1.4,15.6c1.5,0,2.8-0.4,4.1-0.7c2.2-0.5,3-1.5,3-3.7
			c0-0.8-0.2-1.6-0.3-2.4c-0.5-2.7-2.4-4.6-4-6.7C696.1,432.5,694.9,431.9,693,431.8z M686.7,426.6c2.9-0.6,5.8-0.7,8.1-2.5
			c0.3-0.3,0.9-0.5,0.7-1.1c-0.2-0.4-0.7-0.3-1.1-0.3c-4.2-0.2-8.1-1.2-11.3-4c-0.7-0.6-1.1-0.4-1.5,0.2c-0.8,1-1.4,2.1-2.2,3.1
			c-0.7,0.8-0.4,1.2,0.5,1.6c1.9,0.9,3.7,1.8,5.6,2.7C685.9,426.4,686.4,426.5,686.7,426.6z M844.5,438.6c2.9-5.5,7.5-9.3,12.5-13.3
			c-0.7-0.1-0.9-0.2-1-0.1c-3.4,1-6.7,2.1-10.2,0.4c-0.1,0-0.2-0.1-0.3-0.1c-0.8-0.2-1.1,0.1-1.1,0.9c0,1.4,0,2.9-0.1,4.3
			C844.2,433.3,844.1,435.9,844.5,438.6z M906.3,516.1c0.2-2,0.4-3.8,0.4-5.6c0-2-0.5-3.8-2.7-4.8c-0.7-0.3-1.4-0.8-2-1.4
			c-1.9-1.6-3.6-3.4-5.2-5.2c-0.3-0.3-0.5-0.9-1.1-0.6c-0.6,0.3-0.4,0.8-0.4,1.2c-0.1,1.3,0.3,2.5,1.2,3.6c0.7,0.8,1.4,1.6,2.1,2.5
			C901.1,509.1,903.6,512.5,906.3,516.1z M697.5,472.2c1.9-1,3.3-2,4.6-3.1c0.3-0.2,0.7-0.5,0.4-0.9c-0.7-0.9-0.3-1.8-0.3-2.7
			c0-1.9-0.6-3.6-2.1-4.8c-0.8-0.7-1.8-1.5-3.1-1.1c-1,0.4-2,0.9-3,1.3c-0.9,0.3-0.8,0.7-0.3,1.3c0.7,0.7,1.3,1.5,1.9,2.3
			C697.4,466.7,697.7,469.3,697.5,472.2z M821.7,510c0-0.9-0.4-1.4-0.6-1.9c-1.3-2.6-2.5-5.3-3.8-8c-0.4-0.9-0.6-1.8-0.3-2.8
			c0.2-0.5,0.3-1-0.3-1.4c-1.6-1.1-3.2-2.2-4.9-3.3c-0.4-0.3-1-0.4-0.9,0.4c0.2,2.1-0.1,4.3,1.1,6.2
			C814.6,503.4,817.8,506.8,821.7,510z M728.1,501.9c0.8-1.4,1.2-2.4,0.9-3.7c-0.5-2-1-4.1-1.4-6.2c-0.6-2.8-0.3-3.1,2.5-3.3
			c0.4,0,0.9-0.1,1-0.5c0.1-0.5-0.3-0.7-0.7-0.9c-1.4-0.5-2.9-0.9-4.4-0.6c-2.9,0.5-5.1,3.9-4.8,7.7c3.6-0.9,4.2-0.5,5.3,3.2
			C727,498.9,727.5,500.2,728.1,501.9z M898.8,462.1c-2,3.6-2.7,6.7-0.4,10c1.5,2.1,2.6,4.4,3.9,6.6c0.4,0.6,1,1.2,1.9,0.7
			c0.8-0.5,1.1-1.2,0.7-2.1c-0.9-2.1-1.7-4.3-2.6-6.5C901.2,468,900.1,465.2,898.8,462.1z M804.4,440.5c-0.1,1.7,0.5,4.5,1.5,7.2
			c0.6,1.7,1.8,2.4,3.3,3c0.8,0.3,1.1,0.2,0.9-0.7c-0.4-1.5-0.7-3-0.7-4.6c0-2.5-0.7-5,0.5-7.4c0.3-0.6,0-0.7-0.5-0.8
			c-0.5-0.1-1-0.2-1.5-0.3C804.7,436.1,804.7,436.1,804.4,440.5z M707,433.6c-0.3,0-0.5,0-0.7,0.1c-2,0.1-2.8,1.3-2.2,3.1
			c0.9,2.5,1.3,5,0.3,7.5c-0.4,0.9,0.2,0.8,0.8,0.7c1.1-0.3,2.3-0.7,3.4-0.9c1.5-0.2,1.9-1.1,2-2.5c0.1-2.4-0.7-4.6-1.6-6.7
			C708.6,433.9,707.9,433.4,707,433.6z M889.3,537.8c0.1-0.4,0.2-0.6,0.1-0.8c-1.4-2-1.9-4.5-3.2-6.6c-2-3.3-4.1-6.5-6.3-9.7
			c-1-1.6-2.2-3.1-3.3-4.6c-0.2-0.3-0.5-0.7-1-0.4c-0.4,0.3,0,0.6,0,0.9c0.1,0.8,0.7,1.3,0.8,2.1c0.3,2,1.1,4,2.1,5.7
			c1.8,3,4.3,5.4,6.3,8.3c0.6,0.8,1.8,1.2,1.4,2.6C887.8,535.4,888,537.1,889.3,537.8z M742.5,476.2c-0.1,2.7-0.3,5.4-0.4,8.1
			c0,1.3-1.3,2.9-0.2,3.7c0.8,0.6,2.6,0,3.9,0.1c0.9,0,1.1-0.4,1.1-1.2c0-2.7,0-5.4-0.3-8c-0.5-4-1-7.9-2.3-11.8
			c0.3,5.7,0.5,11.4,0.8,17.1C743.6,481.7,743.9,478.8,742.5,476.2z M633.5,472.6c-0.8,0.1-2.1,0.1-3.4,0.4c-1.1,0.2-2.9,0.1-3.2,1
			c-0.4,1,1.1,1.9,1.9,2.8c1.2,1.3,2.5,2.7,4.3,3.2c1.5,0.4,2,0,2-1.5c0-0.5,0.1-1,0.1-1.5c0-0.4,0.2-0.7,0.7-0.4
			c0.9,0.7,1-0.1,1.1-0.7c0.5-2.5,0-3.2-2.5-3.2C634.3,472.6,634.1,472.6,633.5,472.6z M887.9,461.8c-1.8-4.2-11.4-14.6-14.1-15.4
			c1.5,3.4,3,6.7,4.8,9.8c0.2,0.4,0.6,0.7,1,0.9C882.5,458.3,885.1,459.9,887.9,461.8z M905,499c-0.7-5.2-2.1-10.1-4.6-14.7
			c-0.6-1.1-1.2,0.1-1.8-0.2c-0.6-0.2-0.4,0.5-0.4,0.9c0,1.6-0.1,3.3-0.1,4.9c0,0.5,0,1,0.3,1.5C900,494.5,902.8,496.4,905,499z
			 M781.8,408.2c-1.2,0.6-1.8,1.7-2.9,1.6c-1.1,0-1.3,0.5-1.6,1.3c-0.2,0.7-0.4,1.4-0.5,2.1c-0.3,4.5-0.6,9-0.9,13.6
			c-0.1,1.2-0.3,2.5,0.1,3.8c0.9-0.4,1.1-1,1.2-1.8c0.7-4,1.1-8,2.1-11.9C780.1,414.1,780.8,411.3,781.8,408.2z M724.5,430.1
			c-0.5,0-0.7,0.3-0.9,0.6c-0.8,1-1.8,1.7-2.9,2.2c-0.9,0.4-0.8,0.8-0.4,1.5c0.8,1.4,1.4,2.9,1.5,4.5c0,1,0.4,1,1.1,0.7
			c1-0.4,2.1-0.8,3.2-1.2c0.8-0.3,2-0.3,2.4-0.9c0.4-0.7-0.6-1.5-0.9-2.3c-0.1-0.2-0.2-0.4-0.2-0.6c-0.2-1.7-1.5-2.7-2.3-4.1
			C724.9,430.3,724.6,430.2,724.5,430.1z M740.4,413.4c3.1,9.3,6.4,18.5,8.8,28.3c0.7-1.7,0.8-3,0.5-4.3c-1.8-6.9-3.9-13.8-6.2-20.5
			C743,415.3,742.4,414,740.4,413.4z M825.9,456.8c-0.8-4.1-1.4-8.3-1.6-12.4c-0.1-1.9-0.2-3.8-0.3-5.7c0-0.4,0.1-1-0.5-1.1
			c-1.2-0.3-2.6,0.8-2.5,2.1c0.2,2.4,0.3,4.8,0.7,7.2C822.2,450.5,823.4,453.9,825.9,456.8z M620.8,346.6c0-0.1-0.1-0.4-0.2-0.6
			c-0.8-2.7-1.5-5.4-2.5-8c-1.2-3.3-1.9-6.9-3.8-9.9c-0.3-0.5-0.6-1.1-0.3-1.6c1.2-1.8-0.3-2.3-1.4-3c-0.3-0.2-0.7-0.4-1-0.2
			c-0.3,0.3-0.1,0.7,0,1c0.6,1.8,1.1,3.6,1.7,5.3c2,5.7,4.1,11.5,6.1,17.2c0.1,0.4,0.2,1,0.8,0.9
			C620.7,347.6,620.8,347.2,620.8,346.6z M717.7,375.4c0.1-0.1,0.2-0.3,0.3-0.4c-1.2-1.7-2.4-3.5-3.5-5.2c-1-1.6-1-1.7-2.7-0.5
			c-0.2,0.1-0.3,0.2-0.5,0.3c-0.8,0.3-1.6,0.4-2.1-0.4c-0.6-0.9,0.2-1.3,0.8-1.8c0.2-0.2,0.4-0.3,0.6-0.4c0.7-0.6,1.4-1.2,0.9-2.2
			c-0.5-1-1.1-2.2-2.1-2.6c-0.6-0.2-0.8,1.3-1.3,2c-0.1,0.2-0.2,0.4-0.3,0.6c-1.4,3.2-1.4,3.2,1.3,5.5
			C711.7,372.5,714.8,373.7,717.7,375.4z M594.7,547.2c0,0.5,0,1.2,0,1.8c0,0.6,0.3,1,1,1c1.9,0,3.8-0.2,5.6-0.7
			c0.7-0.2,1.1-0.7,0.4-1.3c-2.1-2.1-3.5-4.8-5.2-7.2c-0.2-0.2-0.3-0.6-0.6-0.6c-0.4,0.1-0.5,0.5-0.5,0.9
			C595.1,543.1,594.5,545.1,594.7,547.2z M713.5,440.6c0,0,0,0.4-0.1,0.7c-0.3,1.2,0.1,1.5,1.2,1.2c0.9-0.3,1.9-0.6,2.8-0.8
			c1.1-0.3,1.4-1,1.3-2.1c-0.3-1.9-1.2-3.6-2.3-5.2c-0.9-1.1-1.9-1.5-3.4-1.3c-1,0.2-1.2,0.5-0.8,1.4
			C713,436.4,713.5,438.2,713.5,440.6z M648.1,478.8c-0.3-1.4-0.3-3.2-2-4c-1.3-0.7-2.8-0.9-4.3-1.3c-0.6-0.2-1-0.1-1,0.7
			c-0.1,1.2-0.4,2.3-0.7,3.5c-0.2,0.6-0.2,1,0.6,1c1.6,0.1,2.9,0.8,4,2c0.6,0.7,1.6,1,2.6,0.6C648.2,480.8,648,479.8,648.1,478.8z
			 M705.2,466.7c1.4-1,3-1.8,3.5-3.1c1-2.4-0.6-5.9-2.9-7.1c-0.3-0.2-0.6-0.4-1-0.2c-1.4,0.6-2.9,1.2-4.4,2.1
			C704.4,459.7,705.3,462.8,705.2,466.7z M751,365.7c-0.1-0.9,0-1.5-0.1-2c-0.5-2.9-0.7-3-3.3-1.8c-0.7,0.3-1.2,0.6-1,1.6
			c0.6,3.5,1.2,7,1.8,10.5c0.1,0.7,0.4,1.9,1.1,1.8c0.9-0.2,0.3-1.3,0.3-2c0.1-0.9-0.8-1.9,0-2.8C751.1,369.4,750.6,367.3,751,365.7
			z M788,458.2C788,458.2,788,458.2,788,458.2c0,1.1,0,2.3,0,3.4c0,3.1,0,3.1,3,2.1c0.6-0.2,1.4-0.2,1.4-1.2
			c0.1-3.7-0.7-7.1-3.2-9.9c-0.2-0.3-0.3-0.9-0.9-0.6c-0.4,0.2-0.3,0.7-0.3,1.1C788,454.8,788,456.5,788,458.2z M686.5,523.4
			c0.7-0.1,1.4-0.1,1.9-0.6c0.2-0.3-0.1-0.7-0.3-1c-3.1-4.6-6.3-9.2-9.4-13.9c-0.2-0.4-0.4-1-1-0.6c-0.6,0.3-0.6,0.9-0.2,1.5
			c0.5,0.9,1.1,1.7,1.6,2.6c2,3.9,4.2,7.7,6.5,11.5C685.8,523.5,686.1,523.3,686.5,523.4z M609.9,496.5c-0.1,0-0.3-0.1-0.4-0.1
			c-2,3-3.7,6.2-5.6,9.2c-1,1.7-0.2,2.9,0.3,4.4c0.2,0.5,0.5,0.5,0.8,0.1c1.4-1.8,3.3-3.5,3.9-5.7
			C609.7,501.9,609.6,499.1,609.9,496.5z M623.2,446.2c-0.7,1.4-1.5,2.6-1.9,3.9c-0.7,2.6-1.8,5.1-3.1,7.4c-0.2,0.3-0.6,0.8-0.2,1.1
			c0.9,0.7,2,1.7,3.1,1.4c1.1-0.2,1.9-1.2,1.9-2.6c0.1-3.2-0.1-6.4,0.3-9.6C623.5,447.4,623.7,446.9,623.2,446.2z M867.8,509.8
			c0.8,0.2,1-0.1,0.7-0.9c-0.4-1-0.9-2.1-1.9-2.7c-2.1-1.2-4.1-2.5-6.2-3.7c-0.4-0.2-1-1.1-1.4-0.4c-0.4,0.8-1.4,1.8-0.5,2.8
			C861,507.6,863.9,509.7,867.8,509.8z M808.2,429.9c0.2,1.1,0.1,2.1-0.1,3c-0.1,0.4-0.1,0.8,0.5,1c0.7,0.2,1.4,0.5,2.1,0.3
			c0.5-0.2,0.1-0.8-0.1-1.2c-0.6-1.6-0.9-3.2-1.1-4.8c-0.1-1-0.5-1.2-1.3-0.6c-1.5,1-3.2,1.5-4.8,2.1c-1.4,0.5-2.7,1.1-4.4,1.9
			c2.1,0.9,3.9,1.2,5.7,1.6c2.2,0.5,2.1,0.9,2.6-1.5C807.5,431,807.6,430.5,808.2,429.9z M654.7,449c3.3,1.4,4.3,1.4,5.5-0.3
			c4-5.4,6-11.4,6.1-18.1c0-0.6,0-1.3-0.7-1.3c-0.9,0-0.4,0.8-0.4,1.3c0,5.8-1.4,11-5.8,15.1C658,446.9,656.4,447.9,654.7,449z
			 M712.9,452.8c-1.5,0.6-3,1.1-4.4,1.8c-0.7,0.3-0.2,0.6,0.1,0.9c1.2,1,2,2.2,2.6,3.6c0.3,0.7-0.1,1.8,0.7,2
			c0.7,0.2,1.4-0.8,2.1-1.2c2.5-1.5,2.7-2.2,1.4-4.8c-0.3-0.5-0.6-1-0.9-1.4C714.1,453.2,713.6,452.9,712.9,452.8z M845.1,344.8
			c0.1,0.1,0.2,0.2,0.3,0.3c0.7-0.9,1.5-1.8,2.2-2.7c0.1-0.2,0.3-0.6,0.5-0.4c0.9,1.2,0.9-0.1,1.2-0.4c1.1-1.2,1.8-2.7,2.6-4.1
			c0.7-1.2,1.6-2.1,2.8-2.7c0.5-0.2,0.5-0.5,0.4-0.9c-0.4-1.7-0.9-3.4-1.4-5.5c-1.3,1.8-2.1,3.4-2.7,5.1c-0.6,1.7-1,3.4-1.6,5.1
			c-0.1,0.4-0.7,1.1-0.7,1c-0.4-0.8-0.6-0.3-0.8,0.1C846.9,341.4,846,343.1,845.1,344.8z M829.9,417c-1.5-0.8-2.7-1.5-3.9-2.1
			c-1.4-0.7-2.9-1-4.4-1.3c-1.2-0.2-2.3,0.2-3.2,0.7c-0.5,0.3,0.5,1.5,0.6,2.3c0.2,1.4,1,1.9,2.4,1.7
			C824,417.9,826.7,417.5,829.9,417z M801.8,447.4c-0.2-1.2-0.4-2.4-0.5-3.6c-0.2-2.3-0.8-4.8,0-6.9c0.8-2-0.3-1.9-1.4-2.3
			c-1.1-0.4-1.5-0.1-1.8,1.1C797.1,440.3,798.7,444.1,801.8,447.4z M767.4,357c0.1,0.6-0.5,1.6,0.2,1.9c1.4,0.5,2.3,1.7,3.7,2.2
			c0.6,0.2,0.9,0.2,1.2-0.5c0.5-1.4,1-2.8,1.6-4.2c0.3-0.7-0.3-0.9-0.8-1c-1.1-0.2-2.1-0.5-3.2-0.6
			C767.6,354.5,767.6,354.5,767.4,357z M792,402.4c-1.2,0.8-2.2,1.5-3.2,2.2c-0.7,0.5-1.2,1-1.4,1.9c-0.5,2.6-1.2,5.2-1.8,7.8
			c-0.1,0.6-0.7,1.3,0.1,2.3C787.8,411.9,791.5,408,792,402.4z M773.5,376.8c1.5-1.8,2.1-3.6,3.3-5.2c0.9-1.2,1.2-2.5,1.3-3.9
			c0.2-1.9,0.2-1.9-1.7-1.6c-1.3,0.2-2.5,0.4-2.5,2.2C773.8,371.1,773.3,373.7,773.5,376.8z M634.4,406.2c0.2-1.1-0.2-2.2-0.2-3.4
			c-0.2-2.3-0.5-4.6-0.7-6.9c-0.1-0.8-0.6-1-1.2-1.1c-0.5-0.1-0.6,0.3-0.6,0.7c0,2.6,0,5.3,0,7.9c0,1.4,0.1,2.7,0.9,3.9
			c0.5,0.6,1.1,1.5,1.7,1.4c0.8-0.2,0.2-1.2,0.2-1.8C634.5,406.6,634.4,406.4,634.4,406.2z M634.3,417.4c0-0.7-0.1-1.5,0-2.2
			c0.5-1.9-0.4-3.5-2.2-4.1c-0.4-0.1-0.8,0-0.8,0.4c0,0.5-0.3,1-0.2,1.6c0.2,1.4,0.6,2.9-0.5,4.3c-0.4,0.5,0.4,2.6,0.9,2.8
			c2.4,0.8,3,0.4,2.9-2.2C634.3,417.8,634.3,417.7,634.3,417.4z M790.8,384.5c2.9-3.1,5-6.9,7.8-10.1c0.5-0.6,0.2-0.8-0.5-0.9
			c-2.8-0.3-4.3,0.8-5.1,3.5C792.3,379.4,791.6,381.9,790.8,384.5z M854.7,498.6c-0.2-0.8,0.5-2-0.9-2.6c-1.5-0.6-3.1-1-4.7-1.4
			c-1.1-0.3-1.2,0.7-1.6,1.3c-0.5,0.7,0,1,0.5,1.3c1.4,1,2.9,2,4.3,3c0.7,0.4,1.4,1.5,2,1.1C855.1,500.9,854.8,499.6,854.7,498.6z
			 M793.6,432.5c-0.6,0-0.5,0.4-0.6,0.7c-1.5,4.5-0.5,8.7,1.5,12.8c0.2,0.5,0.7,1,1.2,0.7c0.6-0.3,0.1-0.8-0.1-1.2
			c-1.6-3.5-1.3-7-0.2-10.5C795.8,433.7,794.9,432.5,793.6,432.5z M779,359.4c-0.1-2.1-0.8-2.8-2.8-3c-0.4,0-0.8-0.1-0.9,0.4
			c-0.5,1.9-0.7,3.8-0.8,5.8c0,0.2,0.2,0.4,0.4,0.6c0.8,1.1,1.9,0.7,3,0.6c1-0.2,0.8-1.1,0.9-1.7C778.9,361.1,779,360.2,779,359.4z
			 M721.7,449.8c2.5,1.4,3,2.2,3.6,5.4c0.2,1.3,1.2,0.8,1.9,1c0.7,0.2,1.3-0.1,1.3-0.9c0.1-2.1,0.2-4.1-1.3-5.9
			c-0.5-0.6-1-0.9-1.7-0.7C724.4,449,723.2,449.3,721.7,449.8z M916.8,515c-0.2-2.9-1.3-5.1-2.2-7.4c-0.6-1.6-1.2-3.1-2.2-4.5
			c-0.2-0.3-0.2-0.7-0.7-0.7c-0.7,0.1-2.1,2.7-1.7,3.2C912.2,508.6,914.4,511.6,916.8,515z M596.8,525.8c0.4-0.8,0.7-1.3,0.9-1.8
			c1.5-3.7,3.3-7.2,5.3-10.7c1-1.7,0.9-2.9-0.5-4.5C600.6,511.3,596.9,522.3,596.8,525.8z M722.9,455.5c-0.3-1.1-0.8-2.1-1.3-3.1
			c-1-2-4-2.5-5.5-0.8c-0.2,0.2-0.3,0.4-0.1,0.5c1.4,1.3,1.8,3,2.6,4.6c0.5,1,2.1-0.3,3.2-0.3C722.4,456.4,723,456.3,722.9,455.5z
			 M760.1,455.3c0.6-7.3,1.1-14.2,1.6-21.2c-1.4,2.1-3,4-2.5,6.9c0.6,3.9,0.6,7.8,0.4,11.7C759.5,453.5,759.6,454.2,760.1,455.3z
			 M689.2,538.3c0.3-0.4,0.1-0.7,0-1c-1.1-2.6-2.5-5-3.6-7.6c-1.4-3.2-1.5-3-4-2.8c-1.2,0.1-0.9,0.6-0.5,1.2
			c1.2,1.6,2.4,3.2,3.6,4.8C686.2,534.8,687.4,536.8,689.2,538.3z M608.9,509.8c-0.3,0.1-0.4,0.1-0.5,0.1c-2.8,2.7-3,3.6-1.5,7.1
			c0.9,2.1,1.9,4.2,2.9,6.4C609.3,518.9,609.2,514.4,608.9,509.8z M731.8,432.6c0-2.6,0-5,0-7.5c0-0.5-0.1-1.2-0.9-0.6
			c-1.8,1.4-3.9,2.5-5.7,4.2c2,0.2,2.4,2.1,3.8,2.8c0.3-0.5,0.2-0.9,0-1.3c-0.2-0.5-0.1-1,0.3-1.2c0.4-0.1,0.7,0.3,0.9,0.7
			C730.8,430.7,731.3,431.6,731.8,432.6z M883.5,466.6c0.8,2.6,2.3,4.7,2.9,7.2c0.6,2.9,1.4,3.1,3.7,1.1c0.1-0.1,0.2-0.1,0.2-0.2
			c0.5-0.4,0.6-0.8,0.1-1.4c-1.7-1.8-3.2-3.8-5.1-5.5C884.8,467.3,884.6,466.4,883.5,466.6z M782,361.1c-0.1,2.3-0.1,2.3,2.1,2.3
			c1.4,0,2.8,0,4.2,0.3c0.4,0.1,0.8,0.1,1.2-0.1c0.3-0.2,0.8-0.3,0.9-0.8c0-0.4-0.4-0.5-0.7-0.7c-1.7-0.9-3.4-1.8-5.1-2.6
			C781.7,358.3,782.1,358.4,782,361.1z M779.8,405.1c1.9-1.6,4.4-2.6,4.8-5.5c0-0.4,0.3-0.9,0.6-1.1c2-1.2,2.2-3.4,2.9-5.3
			c0.1-0.4,0.6-0.9,0-1.2c-0.6-0.3-0.7,0.4-0.9,0.8c-1.4,2.4-2.8,4.9-4.8,6.7C780.6,401.1,780.3,403.1,779.8,405.1z M768.2,362.7
			c0.3,0.7,0.2,1.4,0.1,2c0,0.4-0.1,0.7,0.4,0.9c0.6,0.2,2.8-0.7,3.1-1.3c0.6-1.5,0.3-2.3-1.2-2.9c-1-0.4-1.9-0.6-2.9-1
			c-0.4-0.1-0.7,0-0.8,0.4c-0.6,2.1-1.6,4-2.7,6.2c1.3-0.3,2.6-0.4,2.6-1.9C766.9,364.1,767.4,363.4,768.2,362.7z M718.8,387.6
			c0.2-1.3-0.3-2-1.2-2.8c-3-2.5-6.1-4.9-9.3-7.1c-2-1.4-3.9-2.9-6.3-3.8C707.6,378.5,713.2,383,718.8,387.6z M836.6,468.2
			c-0.4,0.1-0.9,0.4-1.2,0.8c-0.2,0.3,0.2,0.5,0.5,0.7c2.7,2,5.6,3.6,8.8,4.8c0.3,0.1,0.6,0.3,0.9,0.1c0.3-0.3,0-0.6-0.1-0.9
			c-0.3-0.9-0.6-1.9-0.9-2.8c-0.3-1-0.7-1.3-1.7-0.7c-2.4,1.5-3.8,1.1-5.2-1.3C837.4,468.6,837.3,468.2,836.6,468.2z M905.8,490.9
			c1.5,4.1,1,8.4,2.8,12.3c1.6-1.6,2.1-3.8,1.2-5.7c-0.5-0.9-0.8-1.9-1.4-2.8C907.6,493.6,907.3,492,905.8,490.9z M773.5,484.7
			c0.1,0,0.1,0,0.2,0c0-1.7,0-3.5,0-5.2c0-0.6-0.1-0.9-0.9-0.9c-0.6,0-0.9,0-0.9,0.7c-0.2,3.4-0.4,6.9-0.6,10.3
			c0,0.8,0.4,1.1,1.1,1.1c0.8,0,0.8-0.6,0.8-1.2C773.3,487.9,773.4,486.3,773.5,484.7z M802.1,371.4c-1.3-1.2-2.6-1.9-4-2.7
			c-2.1-1.1-3.4-0.5-3.9,1.8c-0.5,2.2-0.5,2.1,1.6,1.6c1-0.3,2.1-0.4,3.2-0.5C800,371.5,800.9,371.9,802.1,371.4z M762.3,409.3
			c0.1-0.3,0.3-0.7,0.3-1c0.4-3.1,0.7-6.2,1.1-9.4c0.1-0.9,0.1-1.7,0.2-2.6c0.1-1.3-1.1-1.4-1.8-1.5c-0.8-0.1-0.3,0.7-0.4,1.2
			c-0.3,1.9,0.2,3.7,0.1,5.6C761.7,404.1,762.3,406.7,762.3,409.3z M834.3,554.4c2.4,0,2.5-0.1,1.8-2.5c-0.2-0.7-0.4-1.5-0.7-2.2
			c-0.2-0.6-0.5-0.7-1-0.3c-1.4,1.1-2.6,2.3-3.7,3.7c-0.4,0.5-0.5,0.9,0.4,1C832.2,554.2,833.2,554.3,834.3,554.4z M683,417.5
			c2.7,0.5,5.3,1.1,7.9,1.5c1.5,0.2,2.9,0.6,4.4,0.4c0.4-0.1,1,0.2,1.1-0.5c0-0.9-0.7-0.6-1.1-0.6c-3-0.3-6-0.9-8.8-2.1
			C684.6,415.4,684.4,415.5,683,417.5z M759.2,476.4c-0.3,2.4-0.5,4.7-1,7.1c-0.3,1.7-0.7,3.3-0.6,5c0.1,1,0.6,1,1.3,1.1
			c0.9,0.1,0.9-0.5,0.8-1.1c0-2.8,0-5.7,0-8.5C759.7,478.8,759.7,477.6,759.2,476.4z M859.3,524c-3.1-3.9-6.5-7.5-11.2-9.6
			C850.7,519,855.4,521.1,859.3,524z M873.1,478.4c0,0.6,0.2,0.8,0.5,1c1.5,1.3,3.3,2.4,4.3,4c1,1.6,2.4,1.6,3.8,2.2
			C880.6,480.9,876.8,479.8,873.1,478.4z M689.1,413.9c2.4,0.7,4.7,1.4,7.2,1.3c1.1,0,2.4-1.5,2.2-2.5c-0.1-0.5-0.4-0.4-0.7-0.4
			C694.9,412.4,692,413,689.1,413.9z M724.1,353.8c0.1-2.2-0.2-2.4-2.3-2.2c-0.6,0.1-1.1,0.2-1.7,0.3c-0.7,0.1-0.9,0.5-0.5,1.1
			c0.8,1.2,1.7,2.5,2.5,3.7c0.2,0.3,0.6,0.6,1.1,0.5c0.5-0.2,0.8-0.5,0.8-1C724,355.4,724,354.6,724.1,353.8z M906.6,472.7
			c0.9-2.9-3.2-13.7-5.5-15C902.6,462.8,904.9,467.4,906.6,472.7z M788,443c0,1.1,0,2.1,0,3c0,0.4-0.1,0.9,0.3,1.1
			c0.4,0.2,0.8-0.2,1.1-0.3c0.6-0.3,0.4-0.7,0.3-1.2c-0.3-0.8-0.5-1.6-0.7-2.4c-1.1-3.8,0.3-7.3,1.3-10.9c0.1-0.4,0.5-0.9,0-1.3
			c-0.4-0.3-0.8-0.5-1.3-0.3c-0.6,0.2-0.4,0.8-0.4,1.2C788.4,435.7,788.2,439.4,788,443z M730.3,447.4c-0.2,0-0.4,0-0.6,0
			c-0.6,0.1-1.4,0-1.6,0.6c-0.2,0.6,0.6,0.8,0.9,1.3c1.3,2.2,2.7,4.5,2,7.3c-0.1,0.3,0,0.4,0.3,0.6c0.9,0.5,1.1-0.2,1.1-0.8
			c-0.2-2.7-0.5-5.4-0.7-8.1C731.5,447.4,731.1,447.1,730.3,447.4z M780.4,373.9c0.9-0.5,1.3-1,1.7-1.7c0.9-1.9,2.2-3.6,3.5-5.2
			c0.3-0.4,1.1-0.7,0.8-1.2c-0.4-0.6-1.2-0.3-1.8-0.2c-0.3,0.1-0.6,0.4-0.9,0.6C780.9,368,781.1,371,780.4,373.9z M768.1,373.3
			c-0.1,0.7-0.4,1.4,0.1,2.1c0.2,0.2,0.4,0.5,0.7,0.4c0.3-0.1,0.3-0.3,0.4-0.6c0.5-2,0.9-4,1.6-6c0.5-1.6,0.2-1.8-1.4-1.4
			c-1.1,0.3-1.7,0.8-1.5,2.1C768.2,371.1,768.1,372.2,768.1,373.3z M774.9,456.1c0.5-6.9,1.1-13.7,1.6-20.6c0-0.3,0.3-0.9-0.4-0.9
			c-0.5,0-0.7,0.4-0.7,0.9c-0.1,1.2-0.2,2.5-0.2,3.7C775,444.8,774.5,450.4,774.9,456.1z M682.8,538.1c-2.1-2.7-4-5.1-5.9-7.6
			c-0.5-0.6-1-1.2-1.5-1.8c-0.2-0.2-0.4-0.5-0.8-0.2c-0.3,0.2-0.3,0.5-0.1,0.8c0.3,0.5,0.5,1,0.8,1.5
			C676.9,534,679.2,536.4,682.8,538.1z M741.3,362.4c0.8-0.3,1.1-0.8,1.1-1.4c0.2-1.6-0.1-3.2-0.6-4.7c-0.4-1-1.7-1.2-2.7-1.5
			c-0.3-0.1-0.4,0.3-0.3,0.5C739.6,357.7,740.5,360.1,741.3,362.4z M829,464.4c-0.6-1.2-1.2-2.3-1.6-3.5c-0.3-1-0.6-1.9-2.1-1.5
			c-0.8,0.2-1.5-0.5-2.1-1.1c-0.6-0.6-1.3-1.2-1.9-1.8c-0.3-0.3-0.6-0.5-0.9-0.1c-0.3,0.3-0.3,0.7,0.1,0.9c0.7,0.6,1.5,1.3,2.2,1.9
			C824.9,460.9,826.7,463,829,464.4z M622.9,408.7c-0.6,0.3-0.4,0.8-0.5,1.2c-0.5,4.2-1.5,8.2-2.5,12.3c-0.1,0.4-0.6,0.9,0.1,1.1
			c0.5,0.1,1-0.2,1.3-0.7c0.2-0.3,0.2-0.7,0.3-1c1-3.9,0.8-7.9,1.6-11.8C623.2,409.4,623.4,409,622.9,408.7z M628,470
			c1.8-0.2,3.7-0.5,5.5-0.7c0.3,0,0.8,0.1,0.8-0.4c0-0.4-0.3-0.6-0.6-0.8c-1.3-0.4-2.6-0.9-3.9-1.3c-0.8-0.3-1.1,0.3-1.5,0.8
			c-0.5,0.6-1.2,1.2-1,2.1C627.4,470.1,627.7,470.1,628,470z M730,404.3c1.8,4.5,2.2,9.6,6,13.1C734.3,412.9,732.5,408.4,730,404.3z
			 M719,363c3.1,4.7,6.4,9.1,9.4,13.8C726.7,371.2,722.6,367.3,719,363z M819.1,434.7c1.5,0.2,2.6-0.5,3.7-0.9
			c1.9-0.7,1.9-0.7,0.6-2.2c-0.5-0.6-1.1-1.2-1.6-1.8c-0.3-0.4-0.8-0.6-0.9,0.1C820.8,431.6,819.9,433.1,819.1,434.7z M706.2,521
			c-0.3-0.8,0.6-2-0.3-2.4c-0.7-0.4-1.4,0.5-2.1,1c-1.7,1.1-1.7,1.1-0.4,2.5c0.7,0.7,1.5,2.2,2.2,1.9
			C706.6,523.5,705.9,521.9,706.2,521z M857.3,487.5c0.5,1.9,1.3,3.8,1.6,5.8c0.4,2.2,1.1,2.9,3.7,3.3
			C861,493.4,859.4,490.3,857.3,487.5z M798.7,366.2C798.7,366.2,798.7,366.2,798.7,366.2c0.7,0,1.3,0,2,0.1c0.2,0,0.4,0,0.5-0.2
			c0-0.1,0-0.3-0.1-0.4c-1.4-1.2-2.9-2.1-4.7-2.5c-0.4-0.1-0.7-0.1-0.9,0.4c-0.8,1.6-0.2,2.6,1.5,2.6
			C797.6,366.2,798.1,366.2,798.7,366.2z M907.9,487.1c-0.2-2.5-0.9-4.9-2.2-7.1c-0.3-0.6-0.8-0.2-1.2,0c-0.4,0.3-0.8,0.5-0.4,1.1
			c0.7,1.1,0.7,2.6,2.1,3.5C906.7,484.9,907,486.3,907.9,487.1z M774.5,393.2c1.2-4.4,2.1-8.8,4-13
			C775.5,384.1,773.7,388.3,774.5,393.2z M796.8,385.3c-1.3,1.3-2.7,2.6-4,4c-0.9,1-1.2,2.5-1.8,3.7c-0.1,0.3-0.2,0.7,0.2,0.8
			c0.4,0.2,0.5-0.2,0.7-0.4C793.9,390.9,795.4,388.2,796.8,385.3z M853.8,492c-0.3-1.4-0.9-2.7-1.6-4c-0.3-0.5-0.6-0.3-0.9,0
			c-0.8,0.9-1.3,1.9-1.5,3c-0.1,0.3,0,0.6,0.4,0.7c0.9,0.3,1.9,0.5,2.8,0.8C853.5,492.7,853.8,492.6,853.8,492z M617,470.7
			c-2,0.5-3.3,1.3-4.6,2.2c-0.5,0.3-1.4,0.8-0.8,1.5c0.5,0.6,1.3,1,2.2,0.6c0.4-0.2,0.8-0.4,1-0.9C615.3,473.1,616,472.1,617,470.7z
			 M817.5,376.4c-0.1-0.5-0.4-0.5-0.7-0.2c-0.5,0.3-0.9,0.8-1.4,0.9c-2.2,0.7-2.5,1.4-1.6,3.3c0.2,0.3,0.3,0.7,0.7,0.8
			c0.4,0.1,0.5-0.4,0.7-0.7c0.8-1.2,1.2-2.6,2.2-3.7C817.5,376.7,817.5,376.6,817.5,376.4z M740.2,396.6c1.5,3.9,2.8,7.9,4.6,11.7
			C743.8,404.2,742.9,400,740.2,396.6z M726.1,351.4c-1.3-0.2-1.9,0.1-1.3,1.5c0.3,0.6,0.5,1.4,0.7,2c0.1,0.4,0.3,0.8,0.8,0.7
			c0.4-0.1,0.8-0.3,0.8-0.8c0.1-0.7,0.1-1.3,0.2-2C727.7,351.7,727.2,351.2,726.1,351.4z M720.8,496.7c-0.5,1.4-1.9,2.6-1,4
			c0.8,1.2,1.1,2.7,2,3.8c0.1-0.1,0.3-0.1,0.4-0.2C721.7,501.8,721.3,499.3,720.8,496.7z M673.1,535c1.3,3.2,2.4,6.5,4.8,9.1
			C677,540.6,674.7,538,673.1,535z M698.2,430.1c-0.5-1-0.9-1.7-1.3-2.5c-0.2-0.4-0.4-0.7-0.9-0.4c-1,0.6-1.9,1.1-2.9,1.7
			C694.7,429.7,696.1,430,698.2,430.1z M724.2,385.5c-0.7-3.2-3.4-6-6.3-6.6C720.3,380.9,722,383.2,724.2,385.5z M786.5,369.5
			c1.7-0.8,3.2-1.4,4.6-2.1c0.3-0.1,0.5-0.3,0.5-0.7c0-0.4-0.3-0.5-0.6-0.5c-1-0.3-2-0.4-2.8,0.7C787.7,367.7,787,368.3,786.5,369.5
			z M740.1,481.4c-0.4,1.9-0.8,3.7-1.2,5.6c-0.1,0.5-0.6,1.2,0.2,1.4c0.7,0.1,1.1-0.4,1.2-1.1C740.6,485.2,740.6,483.3,740.1,481.4z
			 M800.9,367.6c-0.3,0.1-0.9-0.3-1.1,0.3c-0.2,0.5,0.3,0.8,0.7,1.1c0.2,0.2,0.5,0.4,0.7,0.6c0.5,0.7,1.2,0.8,1.9,0.6
			c0.5-0.1,0.6-0.7,0.5-1.2c-0.2-0.8-0.7-1.2-1.5-1.3C801.7,367.7,801.4,367.7,800.9,367.6z M632,384.6c-0.2,1.3-0.3,2.5-0.7,3.8
			c-0.2,0.6,0,1.2,0,1.8c0,0.7,0.5,0.8,1,0.8c0.7,0,0.7-0.6,0.6-1C632.7,388.2,632.4,386.4,632,384.6z M867.9,417.6
			c-1,1.8-1.1,3.5-1.4,5c-0.1,0.4-0.2,0.9,0.5,0.9c0.5,0.1,1-0.1,1-0.6C868.2,421.3,868.3,419.7,867.9,417.6z M646,446.4
			c0.7,0.6,1.6,0.7,2.4,0.9c0.5,0.1,1,0.2,1.4-0.3c0.4-0.5-0.1-0.9-0.2-1.3c-0.3-0.6-0.8-0.6-1.3-0.4
			C647.5,445.6,646.7,445.7,646,446.4z M866.2,483.8c-2.2-2.2-3.5-2.3-5.3-0.4C862.6,483.7,864.3,483.9,866.2,483.8z M607.6,307.9
			c0.7,2,3.9,4.7,5.4,4.6C611.2,310.9,609.6,309.1,607.6,307.9z M619.2,313.5c0.1-0.2,0.2-0.3,0.3-0.5c-2.1-1.6-4.1-3.1-6.2-4.7
			c-0.1,0.1-0.2,0.2-0.3,0.4C614.9,310.6,617.2,311.9,619.2,313.5z M871.4,516.6c-0.5-1.3-0.8-2.4-1.2-3.4c-0.3-0.7-0.7-0.3-1.1-0.1
			c-0.4,0.2-1,0.4-0.5,1C869.3,515,869.8,516.1,871.4,516.6z M606.4,406.5c4-0.8,5.9-1.7,6.3-3C610.5,404.1,608.4,404.8,606.4,406.5
			z M619.2,465.8c1.4-0.1,2.2-0.7,3.1-1.1c0.3-0.1,1.2-0.1,0.8-0.8c-0.3-0.5-0.8-0.8-1.4-0.3C620.9,464.3,620.2,464.9,619.2,465.8z
			 M621.4,478.1c0.9,0.2,1.8,0.5,2.7,0.7c0.3,0.1,0.7,0.2,0.8-0.2c0.1-0.2-0.1-0.6-0.3-0.8C623.5,476.6,622.5,477.6,621.4,478.1z
			 M747.7,417.3c0-2.1-1.6-6.6-2.6-7.5C746.1,412.6,746.9,414.9,747.7,417.3z M738.8,450.8c0,2-0.3,3.6,0.8,4.9
			C739.9,454.1,739.6,452.6,738.8,450.8z M743.6,369.3c0.3-1.5-0.2-2.7-0.3-3.9c0-0.3,0-0.8-0.6-0.6c-0.4,0.1-0.5,0.5-0.3,0.9
			C742.7,366.8,743.2,367.9,743.6,369.3z M762.5,426.2c0.6-1.2,1-2.5,0.5-4.1C761.7,423.5,762.5,424.9,762.5,426.2z M855.5,526.5
			c1.4,1,2.3,2.5,3.8,3.3C858.3,528.4,857.1,527.2,855.5,526.5z M714.7,513.5c-0.1-1.5,0.2-2.7-0.2-3.8
			C713.2,510.8,713.2,511.5,714.7,513.5z M666.6,483.1c-0.6-0.8-1-1.7-1.9-1.7c-0.5,0-1,1.1-0.7,1.5
			C664.6,483.6,665.5,483.1,666.6,483.1z M620.8,469c-0.7,0.6-0.9,1.4-1,2.2c-0.1,0.4-0.5,1,0.1,1.2c0.6,0.1,1-0.5,1.1-1.1
			C621.1,470.5,620.7,469.8,620.8,469z M881.9,557.6c-0.8-1.1-1.5-1.9-2.6-2.3C879.7,556.5,880,557.7,881.9,557.6z M608.1,478.6
			c1.2-0.2,1.6-1.2,2.4-1.5c0.2-0.1,0.3-0.4,0.1-0.6c-0.2-0.2-0.5-0.3-0.8-0.1C608.9,476.8,608.4,477.5,608.1,478.6z M709,429.9
			c-0.5-0.7,0.3-1.9-0.8-2c-0.7-0.1-0.8,0.9-0.8,1.4C707.4,430.3,708.4,429.7,709,429.9z M623.3,431.8c-0.3,1-0.5,2-0.8,3.1
			c-0.1,0.3-0.1,0.7,0.3,0.7c0.3,0.1,0.4-0.3,0.4-0.5C623.4,434,623.8,432.9,623.3,431.8z M619.5,403c0-0.4-0.1-0.7-0.6-0.7
			c-0.7,0.1-1.1,0.6-1.2,1.2c-0.1,0.4,0.4,0.4,0.7,0.4C619,403.9,619.5,403.7,619.5,403z M706.1,422.9c-0.3,2-0.5,4-1,6
			C705.9,427,706.5,425,706.1,422.9z M741.1,370.2c-0.1-1.3-0.2-2.5-1.2-3.9C739.6,368.1,740.6,369.1,741.1,370.2z M733.5,352.9
			c-0.6-0.6-1.2-0.6-1.7-0.7c-0.3,0-0.6,0.1-0.7,0.4c-0.1,0.3-0.1,0.6,0,0.9c0.2,0.3,0.6,0.1,0.8,0
			C732.4,353.4,732.9,353.2,733.5,352.9z M621.2,440.7c0.1,0,0.2,0.1,0.3,0.1c0.3-0.8,0.6-1.7,0.9-2.5c0.1-0.3,0.1-0.6-0.2-0.8
			c-0.4-0.2-0.5,0.2-0.5,0.5C621.5,438.8,621.4,439.8,621.2,440.7z M705.2,366.8c0.2-1.9,0.1-2.1-1.7-1.5
			C703.9,366,704.5,366.3,705.2,366.8z M706.7,344.5c0.2-0.7,0.7-1.4,0.2-2c-0.3-0.3-0.7,0.2-0.8,0.4
			C705.5,343.7,706,344.1,706.7,344.5z M812.5,373.4c-0.8,0.5-1.2,1.3-1.7,1.9c-0.2,0.3-0.3,0.6,0.1,0.8c0.3,0.2,0.5,0,0.6-0.3
			C811.9,375.1,812.4,374.5,812.5,373.4z M736.7,489.2c1.1-1.1,1.2-1.4,0.6-2.9C737.2,487.3,736.5,488.1,736.7,489.2z M900.8,549.2
			c0.1-0.6,0.1-1.1,0.1-1.7c0,0-0.6-0.1-0.8,0.1C899.5,548.3,900.4,548.6,900.8,549.2z"/>
		<path class="st0" d="M922.9,500.1c-0.7-1-0.7-2.3-1.4-3.2c-0.1-0.2-0.2-0.5,0-0.7c0.1-0.1,0.3-0.2,0.4-0.1
			c0.2,0.2,0.6,0.3,0.5,0.6c-0.2,0.9-0.2,1.5,0.8,2C923.8,499,923,499.6,922.9,500.1z"/>
		<path class="st0" d="M921.7,494c-1.6,0.5-1.4-0.7-1.8-1.6C921.1,492.4,920.9,493.8,921.7,494z"/>
		<path class="st0" d="M830.6,427.3c-2.3-0.2-4.5-0.7-6.2-2.4c-0.2-0.2-0.7-0.3-0.6-0.8c0.2-0.6,0.7-0.3,1.1-0.2
			c2.4,0.3,4.8,0.6,7.2,0.6c0.5,0,0.9,0,1.4-0.1c0.4-0.1,0.9-0.4,1.2,0.2c0.2,0.5,0,0.9-0.2,1.3C833.6,427.8,832,427.1,830.6,427.3z
			"/>
	</g>
</g>
</svg>
