<?xml version="1.0" encoding="utf-8"?>
<!-- Generator: Adobe Illustrator 18.1.0, SVG Export Plug-In . SVG Version: 6.00 Build 0)  -->
<svg version="1.1" id="Layer_1" xmlns="http://www.w3.org/2000/svg" xmlns:xlink="http://www.w3.org/1999/xlink" x="0px" y="0px"
	 viewBox="0 0 39.6 21.9" style="enable-background:new 0 0 39.6 21.9;" xml:space="preserve">
<style type="text/css">
	.st0{fill:#FFFFFF;}
</style>
<g>
	<path class="st0" d="M37.5,4.2H2.1C0.9,4.2,0,3.3,0,2.1v0C0,0.9,0.9,0,2.1,0h35.4c1.2,0,2.1,0.9,2.1,2.1v0
		C39.6,3.3,38.6,4.2,37.5,4.2z"/>
	<path class="st0" d="M37.5,13.1H2.1c-1.2,0-2.1-0.9-2.1-2.1v0c0-1.2,0.9-2.1,2.1-2.1h35.4c1.2,0,2.1,0.9,2.1,2.1v0
		C39.6,12.1,38.6,13.1,37.5,13.1z"/>
	<path class="st0" d="M37.5,21.9H2.1c-1.2,0-2.1-0.9-2.1-2.1v0c0-1.2,0.9-2.1,2.1-2.1h35.4c1.2,0,2.1,0.9,2.1,2.1v0
		C39.6,20.9,38.6,21.9,37.5,21.9z"/>
</g>
</svg>
