<?xml version="1.0" encoding="utf-8"?>
<!-- Generator: Adobe Illustrator 18.1.0, SVG Export Plug-In . SVG Version: 6.00 Build 0)  -->
<svg version="1.1" id="Layer_1" xmlns="http://www.w3.org/2000/svg" xmlns:xlink="http://www.w3.org/1999/xlink" x="0px" y="0px"
	 viewBox="0 0 600 600" style="enable-background:new 0 0 600 600;" xml:space="preserve">
<style type="text/css">
	.st0{fill:#34494C;}
	.st1{fill:#FFFFFF;}
</style>
<rect x="0" y="0" class="st0" width="600" height="600"/>
<g id="_x33_NXZUg_1_">
	<g>
		<path class="st1" d="M463.4,256.3c0,43.3,0,86.5,0,129.8c-0.2,1.6-0.4,3.1-0.7,4.7c-1.6,8.9-5.6,16.6-12.1,22.9
			c-8.4,8.1-18.5,12.1-30.3,12.1c-70.6,0-141.2,0-211.8,0c-10,0-20,0-30,0c-3.3,0-6.6-0.4-9.8-1.3c-18.9-4.8-32.1-21.7-32.1-41.2
			c0-41.4,0-82.8,0-124.2c0-2,0.1-4,0.4-5.9c1.1-7.7,4-14.6,8.9-20.6c8.3-10.1,19.1-15.7,32.2-15.9c16.3-0.2,32.6-0.1,48.9-0.1
			c0.3,0,0.7,0,1,0c0-0.4,0-0.6,0-0.8c0.2-6.8,1.7-13.2,5-19.1c6.8-12.3,17.2-19.7,31.1-22.1c1.2-0.2,2.4-0.3,3.6-0.5
			c21.5,0,43,0,64.6,0c1,0.1,2,0.2,3,0.4c11.2,1.7,20.4,6.9,27.5,15.8c5,6.3,8,13.5,8.8,21.5c0.2,1.6,0.3,3.1,0.4,4.8
			c0.3,0,0.7,0,1,0c15.8,0,31.5,0,47.3,0c2.2,0,4.4,0.1,6.6,0.4c7,1,13.4,3.5,19.1,7.7c9.4,7,15.1,16.3,17,27.8
			C463.1,253.9,463.2,255.1,463.4,256.3z M300,246.1c-41.8,0.1-75.1,34-75.2,75.1c0,41,33.1,75.2,75.1,75.2
			c41.8,0,75.1-34,75.2-75.1C375.2,280.3,342,246.2,300,246.1z"/>
		<path class="st1" d="M257.5,321.3c0.1-23.8,19.3-42.4,42.3-42.5c23.5-0.1,42.7,18.9,42.8,42.4c0.1,23.2-19,42.4-42.3,42.5
			C276.7,363.8,257.6,344.9,257.5,321.3z"/>
	</g>
</g>
</svg>
