<?xml version="1.0" encoding="utf-8"?>
<!-- Generator: Adobe Illustrator 18.1.0, SVG Export Plug-In . SVG Version: 6.00 Build 0)  -->
<svg version="1.1" id="Layer_1" xmlns="http://www.w3.org/2000/svg" xmlns:xlink="http://www.w3.org/1999/xlink" x="0px" y="0px"
	 viewBox="0 0 115.6 110.5" style="enable-background:new 0 0 115.6 110.5;" xml:space="preserve">
<style type="text/css">
	.st0{fill:#FFFFFF;}
	.st1{fill:#010101;}
</style>
<g>
	<path class="st0" d="M64.8,46.3c0,0-0.1,0-0.1,0c0-0.2,0-0.3,0-0.5c0-3.1,0-6.3,0-9.4c0-0.6,0-0.5-0.5-0.5c-7.9,0-15.8,0-23.7,0
		c-0.1,0-0.2,0-0.3,0c-0.2,0-0.3,0.1-0.3,0.3c0,0.5,0.1,1,0.1,1.5c0,4.8,0.1,9.6,0.1,14.4c0,7.7,0,15.4,0,23.2c0,2.9,0,5.8,0,8.7
		c0,8.7-0.1,17.3-0.1,26c0,0.6-0.1,0.5,0.6,0.5c7.9,0,15.8,0,23.7,0c0.6,0,0.5,0.1,0.5-0.6c0-13.8,0-27.6,0-41.4
		c0-1.3,0.1-2.7,0.3-4c0.3-1.7,1.1-3.2,2-4.6c1.7-2.5,3.8-4.4,6.7-5.4c2.1-0.7,4.3-0.9,6.5-0.6c3.7,0.5,6.5,2.4,8.3,5.7
		c0.9,1.6,1.4,3.4,1.7,5.2c0.3,1.9,0.5,3.7,0.5,5.6c0,13.2,0,26.4,0,39.5c0,0.6-0.1,0.5,0.6,0.5c7.9,0,15.8,0,23.7,0
		c0.7,0,0.6,0.1,0.6-0.6c0-14.2,0-28.4,0-42.6c0-3.5-0.3-7-1.1-10.4c-0.7-3.2-1.7-6.2-3.2-9.1c-2.8-5.2-6.9-9.1-12.4-11.4
		c-2.9-1.2-6-1.9-9.1-2.1c-2.8-0.2-5.5-0.1-8.2,0.4c-5.5,1-10.2,3.6-13.9,7.8C66.7,43.7,65.7,45,64.8,46.3z M1.5,73.2
		c0,12.2,0,24.5,0,36.7c0,0.7-0.1,0.6,0.6,0.6c7.9,0,15.7,0,23.6,0c0.6,0,0.6,0.1,0.6-0.6c0-24.5,0-48.9,0-73.4c0-0.1,0-0.2,0-0.3
		c0-0.2,0-0.4-0.3-0.3c-0.1,0-0.2,0-0.3,0c-7.9,0-15.7,0-23.6,0c-0.6,0-0.6,0-0.6,0.6C1.5,48.7,1.5,60.9,1.5,73.2z M14.1,0
		c-1.7,0-3.2,0.2-4.7,0.6C6.3,1.5,3.8,3.1,2.1,5.8c-1.9,2.9-2.4,6-1.8,9.3c0.7,4.2,3.1,7.3,6.9,9.2c1.8,0.9,3.7,1.3,5.7,1.4
		c2.2,0.1,4.4-0.1,6.5-0.8c3.2-1.1,5.7-3.2,7.3-6.3c1.3-2.7,1.6-5.6,1-8.5c-0.9-3.9-3-6.8-6.6-8.6C18.8,0.4,16.4,0,14.1,0z"/>
	<path class="st1" d="M64.8,46.3c0.9-1.3,1.8-2.6,2.9-3.9c3.7-4.2,8.3-6.8,13.9-7.8c2.7-0.5,5.5-0.6,8.2-0.4
		c3.1,0.2,6.2,0.9,9.1,2.1c5.5,2.3,9.6,6.2,12.4,11.4c1.5,2.9,2.6,5.9,3.2,9.1c0.7,3.4,1.1,6.9,1.1,10.4c0,14.2,0,28.4,0,42.6
		c0,0.7,0.1,0.6-0.6,0.6c-7.9,0-15.8,0-23.7,0c-0.6,0-0.6,0.1-0.6-0.5c0-13.2,0-26.4,0-39.5c0-1.9-0.1-3.8-0.5-5.6
		c-0.3-1.8-0.9-3.6-1.7-5.2c-1.8-3.3-4.6-5.2-8.3-5.7c-2.2-0.3-4.4-0.1-6.5,0.6c-2.9,1-5,2.9-6.7,5.4c-0.9,1.4-1.7,2.9-2,4.6
		c-0.3,1.3-0.3,2.7-0.3,4c0,13.8,0,27.6,0,41.4c0,0.6,0.1,0.6-0.5,0.6c-7.9,0-15.8,0-23.7,0c-0.6,0-0.6,0.1-0.6-0.5
		c0-8.7,0.1-17.3,0.1-26c0-2.9,0-5.8,0-8.7c0-7.7,0-15.4,0-23.2c0-4.8-0.1-9.6-0.1-14.4c0-0.5,0-1-0.1-1.5c0-0.2,0-0.3,0.3-0.3
		c0.1,0,0.2,0,0.3,0c7.9,0,15.8,0,23.7,0c0.5,0,0.5-0.1,0.5,0.5c0,3.1,0,6.3,0,9.4c0,0.2,0,0.3,0,0.5C64.8,46.3,64.8,46.3,64.8,46.3
		z"/>
	<path d="M1.5,73.2c0-12.2,0-24.4,0-36.7c0-0.6,0-0.6,0.6-0.6c7.9,0,15.7,0,23.6,0c0.1,0,0.2,0,0.3,0c0.3,0,0.3,0.1,0.3,0.3
		c0,0.1,0,0.2,0,0.3c0,24.5,0,48.9,0,73.4c0,0.7,0.1,0.6-0.6,0.6c-7.9,0-15.7,0-23.6,0c-0.7,0-0.6,0.1-0.6-0.6
		C1.5,97.7,1.5,85.4,1.5,73.2z"/>
	<path class="st1" d="M14.1,0c2.3,0,4.6,0.4,6.8,1.5c3.6,1.8,5.8,4.7,6.6,8.6c0.6,2.9,0.4,5.8-1,8.5c-1.5,3.1-4,5.2-7.3,6.3
		c-2.1,0.7-4.3,1-6.5,0.8c-2-0.1-3.9-0.5-5.7-1.4c-3.9-1.9-6.2-5-6.9-9.2c-0.6-3.3,0-6.5,1.8-9.3c1.8-2.7,4.3-4.3,7.3-5.2
		C10.9,0.2,12.5,0,14.1,0z"/>
</g>
</svg>
