<?xml version="1.0" encoding="utf-8"?>
<!-- Generator: Adobe Illustrator 18.1.0, SVG Export Plug-In . SVG Version: 6.00 Build 0)  -->
<svg version="1.1" id="Layer_1" xmlns="http://www.w3.org/2000/svg" xmlns:xlink="http://www.w3.org/1999/xlink" x="0px" y="0px"
	 viewBox="0 0 216.6 135" style="enable-background:new 0 0 216.6 135;" xml:space="preserve">
<g>
	<path d="M0,0c0.7,0,1.5,0.1,2.2,0.1c20.5,0,41,0,61.6,0C71.4,0.2,78.9,1,86,3.9c8.6,3.5,15,9.4,18,18.2c3.2,9.7,3.3,19.4-1.4,28.7
		c-2.2,4.5-6,7.7-10.3,10.2c-0.7,0.4-1.5,0.9-2.5,1.5c2,1,3.7,1.8,5.4,2.7c9.2,5.2,13.7,13.5,14.9,23.8c1.1,9.6-0.6,18.6-5.7,26.9
		c-4.3,6.9-10.1,12.1-17.7,15.1c-8.8,3.4-18,3.9-27.2,3.9c-19.1,0.1-38.2,0-57.2,0c-0.7,0-1.5,0.1-2.2,0.1C0,90,0,45,0,0z
		 M31.1,111.5c0.8,0,1.4,0,2.1,0c4.7,0,9.5,0,14.2,0c6.2-0.1,12.4-0.1,18.6-0.4c4.5-0.3,8.7-1.9,11.8-5.4c4.1-4.8,4.6-10.5,4-16.4
		c-0.6-6.6-5.4-11.1-11.4-12.3c-3.6-0.8-7.3-1.2-10.9-1.3c-8.8-0.2-17.6,0-26.4-0.1c-1.6,0-2.1,0.4-2,2c0.1,10.7,0,21.4,0,32.2
		C31.1,110.2,31.1,110.7,31.1,111.5z M46.9,53.3c4,0,8.1,0.1,12.1,0c3-0.1,6-0.4,8.9-1c4.1-0.9,7.9-2.5,9.8-6.6
		c1.7-3.4,2-7.1,1.3-10.8c-0.8-5-3.5-8.5-8.6-9.6c-3.7-0.8-7.5-1.5-11.2-1.6c-8.9-0.2-17.7-0.1-26.6-0.2c-1.4,0-1.6,0.6-1.6,1.7
		c0,8.8,0.1,17.5,0,26.3c0,1.5,0.5,1.8,1.9,1.8C37.6,53.2,42.3,53.3,46.9,53.3z"/>
	<path d="M216.6,89.6c-0.5,0-0.9-0.1-1.4-0.1c-22.4,0-44.7,0-67.1,0c-0.5,0-1,0-1.9,0c0.2,1.9,0.3,3.6,0.6,5.2
		c1.8,10.8,9.4,17.7,20.3,18.5c4.5,0.3,9,0.1,13.2-1.8c3.3-1.5,6-3.7,7.7-6.9c0.9-1.6,2-2.2,3.8-2.2c7,0.1,14.1,0,21.1,0
		c0.6,0,1.2,0,2.2,0c-0.3,1.6-0.5,2.9-0.9,4.2c-2.7,7.4-7.6,13.3-13.7,18c-9.1,7-19.7,9.2-30.8,9.3c-12.7,0.1-24.1-3.8-33.9-11.7
		c-6.9-5.5-10.9-12.9-12.9-21.3c-2.9-12.6-2.8-25.3,0.8-37.8c2.7-9.3,8-16.9,15.8-22.7c9.4-6.8,20-9.2,31.3-8.8
		c8.5,0.3,16.7,2,24.2,6.4c5.9,3.4,10.4,8.2,14.1,14c4.6,7.3,6.7,15.4,7.2,23.9c0,0.6,0.2,1.1,0.3,1.7
		C216.6,81.6,216.6,85.6,216.6,89.6z M190.2,72.8c-0.1-11.7-8.3-20.3-21.6-20.4c-14.3-0.1-20.4,10.2-21.4,20.4
		C161.5,72.8,175.9,72.8,190.2,72.8z"/>
	<path d="M141.5,19.1c0-4.6,0-8.9,0-13.3c18,0,36,0,54.1,0c0,4.2,0,8.3,0,12.4c0,0.3-0.6,0.7-0.9,0.9c-0.3,0.2-0.8,0-1.2,0
		c-16.7,0-33.3,0-50,0C142.9,19.1,142.3,19.1,141.5,19.1z"/>
</g>
</svg>
