<?xml version="1.0" encoding="utf-8"?>
<!-- Generator: Adobe Illustrator 18.1.0, SVG Export Plug-In . SVG Version: 6.00 Build 0)  -->
<svg version="1.1" id="Layer_1" xmlns="http://www.w3.org/2000/svg" xmlns:xlink="http://www.w3.org/1999/xlink" x="0px" y="0px"
	 viewBox="0 0 216.3 176" style="enable-background:new 0 0 216.3 176;" xml:space="preserve">
<style type="text/css">
	.st0{fill:#FEFEFE;}
	.st1{fill:#509EC1;}
</style>
<g>
	<path class="st0" d="M61.5,175.8c0.2,0,0.3,0.1,0.5,0.1c3.2,0.2,6.4,0.1,9.7,0.1c1,0,2,0,3-0.2c0.2,0,0.3,0,0.5,0
		c4-0.2,7.9-0.5,11.8-1.1c4.6-0.6,9.1-1.5,13.6-2.6c4.9-1.2,9.6-2.7,14.3-4.5c5.5-2.1,10.8-4.6,15.9-7.5c9-5.1,17.1-11.2,24.5-18.4
		c5.7-5.5,10.8-11.5,15.3-18c4.8-6.8,8.9-14.1,12.3-21.7c2.2-4.9,4.1-9.9,5.7-15.1c1.1-3.5,2-7,2.8-10.6c0.9-4.2,1.7-8.5,2.1-12.8
		c0.4-3.5,0.7-6.9,0.8-10.4c0.1-2.9,0.1-5.9-0.1-8.8c0-0.4,0.1-0.6,0.4-0.8c2.8-2,5.5-4.2,8-6.6c5.1-4.7,9.5-9.9,13.4-15.6
		c0.1-0.1,0.2-0.3,0.3-0.5c-8.1,3.6-16.5,5.9-25.2,6.9c4.5-2.8,8.5-6.3,11.8-10.5c3.3-4.2,5.8-8.8,7.5-14c-2.1,1.3-4.2,2.4-6.3,3.4
		c-4.9,2.4-9.9,4.3-15.1,5.8c-2.1,0.6-4.2,1.1-6.4,1.5c-0.3,0.1-0.5,0-0.7-0.2c-2.8-2.9-5.9-5.4-9.3-7.4c-5.4-3.2-11.2-5.2-17.4-5.9
		c-3.2-0.4-6.5-0.4-9.7-0.1c-3.7,0.3-7.3,1.2-10.8,2.4c-5.4,2-10.3,4.9-14.6,8.8c-5,4.5-8.8,9.8-11.3,16c-1.5,3.6-2.5,7.4-3,11.2
		c-0.4,3.1-0.5,6.1-0.2,9.2c0.2,2.1,0.4,4.1,0.9,6.1c0.1,0.5,0,0.5-0.5,0.5c-1.8-0.1-3.6-0.2-5.4-0.4c-4.2-0.4-8.3-1-12.5-1.8
		c-3.6-0.7-7.1-1.6-10.6-2.6c-6.1-1.8-12-4-17.8-6.7c-9.1-4.2-17.5-9.5-25.3-15.7c-7-5.6-13.3-11.8-19-18.7c-0.4-0.5-0.4-0.5-0.7,0
		c-3.3,5.8-5.1,12-5.6,18.6c-0.4,5.1,0.1,10,1.4,15c1.1,4.1,2.7,7.9,4.9,11.5c3.1,5,7,9.3,11.7,12.7c0.4,0.3,0.9,0.6,1.4,1
		c-3.6-0.1-7-0.7-10.4-1.6c-3.3-0.9-6.5-2.3-9.7-4c0,10.7,3.2,20.2,9.8,28.4c6.6,8.2,15.2,13.4,25.5,15.7c-3.4,1-6.8,1.4-10.2,1.5
		c-3,0.1-6-0.2-9-0.7c-0.4-0.1-0.5,0-0.3,0.4c0.3,0.7,0.5,1.4,0.7,2.1c2.1,5.4,5.1,10.1,9.1,14.3c4.2,4.4,9,7.9,14.6,10.3
		c4.4,1.9,9,3.1,13.8,3.5c1,0.1,2,0.1,3,0.3C46.1,152.5,24.2,158.5,0,156c0.1,0.1,0.1,0.1,0.1,0.1c3.5,2.2,7.1,4.3,10.8,6.2
		c5.4,2.7,10.9,5.1,16.7,7c3.5,1.2,6.9,2.2,10.5,3c2.7,0.7,5.5,1.2,8.3,1.7c2.6,0.5,5.2,0.8,7.9,1.1
		C56.7,175.5,59.1,175.7,61.5,175.8z"/>
	<path d="M61.5,175.8c-2.4-0.1-4.8-0.3-7.2-0.6c-2.6-0.3-5.3-0.7-7.9-1.1c-2.8-0.5-5.6-1.1-8.3-1.7c-3.5-0.9-7-1.9-10.5-3
		c-5.7-1.9-11.3-4.3-16.7-7c-3.7-1.9-7.3-3.9-10.8-6.2c0,0-0.1-0.1-0.1-0.1c24.2,2.5,46.1-3.6,65.4-18.3c-1-0.1-2-0.2-3-0.3
		c-4.8-0.4-9.4-1.6-13.8-3.5c-5.6-2.4-10.4-5.9-14.6-10.3c-3.9-4.2-7-9-9.1-14.3c-0.3-0.7-0.5-1.4-0.7-2.1c-0.2-0.4-0.1-0.5,0.3-0.4
		c3,0.6,6,0.8,9,0.7c3.5-0.1,6.9-0.6,10.2-1.5c-10.3-2.3-18.9-7.5-25.5-15.7c-6.7-8.2-9.8-17.7-9.8-28.4c3.1,1.7,6.3,3,9.7,4
		c3.3,0.9,6.7,1.5,10.4,1.6c-0.5-0.4-1-0.7-1.4-1c-4.8-3.5-8.7-7.7-11.7-12.7c-2.2-3.6-3.8-7.4-4.9-11.5c-1.3-4.9-1.8-9.9-1.4-15
		c0.5-6.6,2.3-12.8,5.6-18.6c0.3-0.5,0.3-0.5,0.7,0c5.7,6.9,12,13.1,19,18.7c7.8,6.2,16.3,11.5,25.3,15.7c5.8,2.7,11.7,4.9,17.8,6.7
		c3.5,1,7,1.9,10.6,2.6c4.1,0.8,8.3,1.4,12.5,1.8c1.8,0.2,3.6,0.3,5.4,0.4c0.4,0,0.6,0,0.5-0.5c-0.5-2-0.8-4.1-0.9-6.1
		c-0.2-3.1-0.2-6.1,0.2-9.2c0.5-3.9,1.5-7.6,3-11.2c2.6-6.2,6.4-11.5,11.3-16c4.3-3.9,9.2-6.8,14.6-8.8c3.5-1.3,7.1-2.1,10.8-2.4
		c3.2-0.3,6.4-0.3,9.7,0.1c6.2,0.7,12,2.7,17.4,5.9c3.4,2,6.6,4.5,9.3,7.4c0.2,0.2,0.4,0.3,0.7,0.2c2.1-0.4,4.3-0.9,6.4-1.5
		c5.2-1.5,10.3-3.4,15.1-5.8c2.1-1,4.2-2.1,6.3-3.4c-1.7,5.2-4.2,9.8-7.5,14c-3.3,4.2-7.3,7.6-11.8,10.5c8.7-1,17-3.3,25.2-6.9
		c-0.1,0.2-0.2,0.4-0.3,0.5c-3.9,5.7-8.3,10.9-13.4,15.6c-2.5,2.4-5.2,4.6-8,6.6c-0.3,0.2-0.4,0.4-0.4,0.8c0.2,2.9,0.2,5.9,0.1,8.8
		c-0.1,3.5-0.4,6.9-0.8,10.4c-0.5,4.3-1.2,8.6-2.1,12.8c-0.8,3.6-1.7,7.1-2.8,10.6c-1.6,5.1-3.5,10.2-5.7,15.1
		c-3.4,7.6-7.5,14.9-12.3,21.7c-4.5,6.5-9.6,12.5-15.3,18c-7.4,7.2-15.5,13.3-24.5,18.4c-5.1,2.9-10.4,5.4-15.9,7.5
		c-4.7,1.8-9.4,3.3-14.3,4.5c-4.5,1.1-9,2-13.6,2.6c-3.9,0.5-7.9,0.9-11.8,1.1c-0.2,0-0.3,0-0.5,0C70.2,175.8,65.9,175.8,61.5,175.8
		z"/>
	<path class="st1" d="M61.5,175.8c4.4,0,8.7,0,13.1,0c-1,0.1-2,0.1-3,0.2c-3.2,0-6.4,0.1-9.7-0.1C61.8,175.8,61.6,175.8,61.5,175.8z
		"/>
</g>
</svg>
